<svg xmlns="http://www.w3.org/2000/svg" xmlns:xlink="http://www.w3.org/1999/xlink" width="500" zoomAndPan="magnify" viewBox="0 0 375 374.999991" height="500" preserveAspectRatio="xMidYMid meet" version="1.0"><defs><g/><clipPath id="5b26afeba2"><path d="M 98.597656 147.683594 L 117.367188 147.683594 L 117.367188 166.816406 L 98.597656 166.816406 Z M 98.597656 147.683594 " clip-rule="nonzero"/></clipPath><clipPath id="b564ce2f6a"><path d="M 107.984375 147.683594 C 102.800781 147.683594 98.597656 151.957031 98.597656 157.234375 C 98.597656 162.507812 102.800781 166.785156 107.984375 166.785156 C 113.167969 166.785156 117.367188 162.507812 117.367188 157.234375 C 117.367188 151.957031 113.167969 147.683594 107.984375 147.683594 Z M 107.984375 147.683594 " clip-rule="nonzero"/></clipPath><clipPath id="df9d5cb7e8"><path d="M 0.597656 0.683594 L 19.367188 0.683594 L 19.367188 19.800781 L 0.597656 19.800781 Z M 0.597656 0.683594 " clip-rule="nonzero"/></clipPath><clipPath id="9133b4ec45"><path d="M 9.984375 0.683594 C 4.800781 0.683594 0.597656 4.957031 0.597656 10.234375 C 0.597656 15.507812 4.800781 19.785156 9.984375 19.785156 C 15.167969 19.785156 19.367188 15.507812 19.367188 10.234375 C 19.367188 4.957031 15.167969 0.683594 9.984375 0.683594 Z M 9.984375 0.683594 " clip-rule="nonzero"/></clipPath><clipPath id="b095d0f9fe"><rect x="0" width="20" y="0" height="20"/></clipPath><clipPath id="fdf209fee4"><rect x="0" width="229" y="0" height="266"/></clipPath><clipPath id="508e062f1a"><rect x="0" width="87" y="0" height="267"/></clipPath><clipPath id="6ff2cd27be"><path d="M 323 4 L 332.601562 4 L 332.601562 17 L 323 17 Z M 323 4 " clip-rule="nonzero"/></clipPath><clipPath id="4e813d7cac"><rect x="0" width="333" y="0" height="22"/></clipPath><clipPath id="86bafdbc15"><path d="M 2 0.441406 L 8.761719 0.441406 L 8.761719 7.878906 L 2 7.878906 Z M 2 0.441406 " clip-rule="nonzero"/></clipPath><clipPath id="f00e0550b0"><rect x="0" width="9" y="0" height="8"/></clipPath><clipPath id="dfccb28033"><path d="M 2 0.441406 L 8.800781 0.441406 L 8.800781 7.878906 L 2 7.878906 Z M 2 0.441406 " clip-rule="nonzero"/></clipPath><clipPath id="a38bd57c9e"><rect x="0" width="9" y="0" height="8"/></clipPath><clipPath id="014108e98c"><path d="M 2 0.441406 L 9 0.441406 L 9 7.878906 L 2 7.878906 Z M 2 0.441406 " clip-rule="nonzero"/></clipPath><clipPath id="f73996b883"><path d="M 2 0.441406 L 9.121094 0.441406 L 9.121094 7.878906 L 2 7.878906 Z M 2 0.441406 " clip-rule="nonzero"/></clipPath><clipPath id="21fc363fe2"><rect x="0" width="10" y="0" height="8"/></clipPath><clipPath id="cefdb35f20"><path d="M 0.160156 0.359375 L 4.71875 0.359375 L 4.71875 5 L 0.160156 5 Z M 0.160156 0.359375 " clip-rule="nonzero"/></clipPath><clipPath id="3a5f4edb23"><rect x="0" width="5" y="0" height="6"/></clipPath><clipPath id="8ac6e65350"><path d="M 0.679688 0.359375 L 5 0.359375 L 5 5 L 0.679688 5 Z M 0.679688 0.359375 " clip-rule="nonzero"/></clipPath><clipPath id="2dc933230a"><rect x="0" width="5" y="0" height="6"/></clipPath><clipPath id="a1c77cc612"><path d="M 0.519531 0.359375 L 4.839844 0.359375 L 4.839844 5 L 0.519531 5 Z M 0.519531 0.359375 " clip-rule="nonzero"/></clipPath><clipPath id="656f93897c"><rect x="0" width="5" y="0" height="6"/></clipPath></defs><g fill="#ffffff" fill-opacity="1"><g transform="translate(68.856833, 247.757554)"><g><path d="M 89.964844 -6.746094 C 90.34375 -5.511719 90.921875 -4.632812 91.707031 -4.113281 C 92.539062 -3.554688 94.289062 -3.277344 96.949219 -3.277344 L 98.71875 -3.277344 L 98.71875 1.957031 L 71.792969 1.957031 L 71.792969 -3.277344 L 73.5625 -3.277344 C 75.8125 -3.277344 77.292969 -3.441406 78 -3.773438 C 78.261719 -3.894531 78.394531 -4.207031 78.394531 -4.714844 C 78.394531 -5.007812 78.367188 -5.335938 78.316406 -5.691406 C 78.265625 -6.054688 78.09375 -6.769531 77.796875 -7.824219 C 77.480469 -8.964844 77.039062 -10.605469 76.472656 -12.75 C 75.910156 -14.878906 75.09375 -17.824219 74.027344 -21.585938 L 69.972656 -35.921875 C 68.335938 -41.714844 66.386719 -48.824219 64.121094 -57.257812 L 65.828125 -57.71875 L 66.515625 -56.089844 C 63.617188 -54.863281 61.007812 -52.191406 58.691406 -48.078125 C 56.214844 -43.683594 53.421875 -37.5625 50.308594 -29.714844 C 48.152344 -24.394531 46.125 -19.738281 44.222656 -15.742188 C 42.292969 -11.6875 40.355469 -8.300781 38.40625 -5.574219 C 36.371094 -2.722656 34.140625 -0.605469 31.714844 0.78125 C 29.242188 2.195312 26.46875 2.898438 23.386719 2.898438 C 20.113281 2.898438 17.195312 2.3125 14.632812 1.136719 C 12.070312 -0.0429688 9.984375 -1.578125 8.367188 -3.472656 C 6.765625 -5.355469 5.582031 -7.507812 4.820312 -9.9375 C 4.0625 -12.34375 3.753906 -14.785156 3.894531 -17.261719 L 5.660156 -17.164062 L 3.890625 -17.164062 C 3.890625 -18.023438 3.992188 -19.035156 4.199219 -20.207031 C 4.394531 -21.320312 4.878906 -23.375 5.644531 -26.371094 C 6.398438 -29.335938 7.5 -33.492188 8.949219 -38.84375 C 10.398438 -44.195312 12.441406 -51.558594 15.085938 -60.933594 L 24.988281 -95.828125 L 39.417969 -146.660156 L 41.117188 -146.179688 L 39.582031 -145.300781 C 39.25 -145.882812 38.640625 -146.410156 37.75 -146.878906 C 36.8125 -147.371094 35.167969 -147.617188 32.820312 -147.617188 L 31.050781 -147.617188 L 31.050781 -152.851562 L 58.164062 -152.851562 L 58.164062 -147.617188 L 56.398438 -147.617188 C 54.316406 -147.617188 53.003906 -147.382812 52.453125 -146.910156 C 51.984375 -146.507812 51.75 -145.886719 51.75 -145.046875 C 51.75 -144.765625 51.773438 -144.488281 51.820312 -144.207031 C 51.875 -143.890625 52.207031 -142.628906 52.820312 -140.425781 L 55.933594 -129.105469 L 62.34375 -106.003906 L 73.285156 -66.679688 L 89.976562 -6.699219 L 88.273438 -6.222656 Z M 86.582031 -5.703125 L 86.574219 -5.726562 L 69.875 -65.730469 L 58.9375 -105.058594 L 52.523438 -128.167969 L 49.410156 -139.480469 C 48.765625 -141.804688 48.40625 -143.1875 48.332031 -143.625 C 48.253906 -144.097656 48.214844 -144.570312 48.214844 -145.046875 C 48.214844 -146.972656 48.859375 -148.488281 50.152344 -149.597656 C 51.363281 -150.632812 53.445312 -151.152344 56.398438 -151.152344 L 56.398438 -149.386719 L 54.628906 -149.386719 L 54.628906 -151.082031 L 56.398438 -151.082031 L 56.398438 -149.3125 L 32.820312 -149.3125 L 32.820312 -151.082031 L 34.585938 -151.082031 L 34.585938 -149.386719 L 32.820312 -149.386719 L 32.820312 -151.152344 C 35.75 -151.152344 37.945312 -150.769531 39.394531 -150.007812 C 40.894531 -149.21875 41.980469 -148.234375 42.652344 -147.054688 L 43.023438 -146.410156 L 28.390625 -94.863281 L 18.488281 -59.972656 C 15.851562 -50.609375 13.808594 -43.261719 12.363281 -37.921875 C 10.921875 -32.585938 9.820312 -28.445312 9.070312 -25.496094 C 8.324219 -22.585938 7.863281 -20.617188 7.683594 -19.59375 C 7.511719 -18.625 7.425781 -17.816406 7.425781 -17.164062 L 7.425781 -17.066406 C 7.308594 -15.015625 7.566406 -12.996094 8.195312 -11 C 8.8125 -9.027344 9.769531 -7.28125 11.058594 -5.769531 C 12.335938 -4.269531 14.019531 -3.039062 16.109375 -2.078125 C 18.203125 -1.117188 20.628906 -0.636719 23.386719 -0.636719 C 25.84375 -0.636719 28.03125 -1.1875 29.960938 -2.289062 C 31.9375 -3.417969 33.792969 -5.199219 35.53125 -7.628906 C 37.355469 -10.183594 39.191406 -13.398438 41.03125 -17.265625 C 42.902344 -21.195312 44.898438 -25.777344 47.019531 -31.019531 C 50.191406 -39.015625 53.054688 -45.28125 55.609375 -49.8125 C 58.324219 -54.628906 61.5 -57.804688 65.136719 -59.34375 L 67.007812 -60.136719 L 67.535156 -58.175781 C 69.796875 -49.757812 71.742188 -42.660156 73.375 -36.882812 L 77.429688 -22.550781 C 78.503906 -18.769531 79.324219 -15.804688 79.890625 -13.65625 C 80.457031 -11.523438 80.894531 -9.898438 81.207031 -8.773438 C 81.539062 -7.566406 81.746094 -6.707031 81.820312 -6.191406 C 81.894531 -5.667969 81.929688 -5.175781 81.929688 -4.714844 C 81.929688 -2.707031 81.117188 -1.324219 79.496094 -0.566406 C 78.316406 -0.015625 76.335938 0.257812 73.5625 0.257812 L 73.5625 -1.507812 L 75.328125 -1.507812 L 75.328125 0.1875 L 73.5625 0.1875 L 73.5625 -1.578125 L 96.949219 -1.578125 L 96.949219 0.1875 L 95.179688 0.1875 L 95.179688 -1.507812 L 96.949219 -1.507812 L 96.949219 0.257812 C 93.574219 0.257812 91.171875 -0.21875 89.746094 -1.167969 C 88.261719 -2.15625 87.210938 -3.667969 86.582031 -5.703125 Z M 45.324219 -31.785156 C 48.246094 -39.015625 51.105469 -45.179688 53.902344 -50.269531 C 56.863281 -55.652344 60.417969 -59.242188 64.558594 -61.035156 L 65.261719 -59.414062 L 63.558594 -58.941406 L 40.359375 -142.6875 L 42.0625 -143.160156 L 43.761719 -142.675781 L 39.988281 -129.472656 L 34.425781 -109.765625 L 27.921875 -86.570312 L 21.320312 -63.085938 L 15.472656 -42.335938 L 11.324219 -27.441406 C 10.625 -24.886719 10.394531 -22.398438 10.625 -19.972656 C 10.851562 -17.601562 11.523438 -15.492188 12.640625 -13.648438 C 13.734375 -11.84375 15.339844 -10.355469 17.453125 -9.1875 C 19.578125 -8.011719 22.183594 -7.425781 25.273438 -7.425781 C 26.160156 -7.425781 27.296875 -7.570312 28.6875 -7.859375 C 29.898438 -8.113281 31.296875 -8.925781 32.890625 -10.296875 C 34.578125 -11.75 36.441406 -14.128906 38.484375 -17.433594 C 40.566406 -20.804688 42.847656 -25.585938 45.324219 -31.777344 Z M 48.609375 -30.464844 C 46.054688 -24.082031 43.683594 -19.121094 41.492188 -15.574219 C 39.257812 -11.960938 37.160156 -9.308594 35.199219 -7.621094 C 33.144531 -5.847656 31.214844 -4.777344 29.40625 -4.398438 C 27.78125 -4.058594 26.402344 -3.890625 25.273438 -3.890625 C 21.574219 -3.890625 18.398438 -4.625 15.742188 -6.089844 C 13.078125 -7.5625 11.035156 -9.472656 9.617188 -11.816406 C 8.21875 -14.121094 7.382812 -16.726562 7.105469 -19.636719 C 6.832031 -22.492188 7.101562 -25.410156 7.917969 -28.390625 L 12.066406 -43.296875 L 17.914062 -64.042969 L 24.515625 -87.523438 L 31.023438 -110.726562 L 36.589844 -130.441406 L 42.089844 -149.6875 L 67.375 -58.402344 L 65.964844 -57.792969 C 62.5625 -56.316406 59.574219 -53.242188 57.003906 -48.566406 C 54.269531 -43.597656 51.472656 -37.5625 48.605469 -30.460938 Z M 48.609375 -30.464844 "/></g></g></g><g fill="#ff3939" fill-opacity="1"><g transform="translate(68.856833, 247.757554)"><g><path d="M 88.28125 -6.21875 C 88.78125 -4.582031 89.59375 -3.390625 90.71875 -2.640625 C 91.851562 -1.890625 93.929688 -1.515625 96.953125 -1.515625 L 96.953125 0.1875 L 73.5625 0.1875 L 73.5625 -1.515625 C 76.082031 -1.515625 77.8125 -1.734375 78.75 -2.171875 C 79.695312 -2.609375 80.171875 -3.457031 80.171875 -4.71875 C 80.171875 -5.09375 80.140625 -5.5 80.078125 -5.9375 C 80.015625 -6.382812 79.820312 -7.171875 79.5 -8.296875 C 79.1875 -9.429688 78.75 -11.066406 78.1875 -13.203125 C 77.625 -15.335938 76.804688 -18.289062 75.734375 -22.0625 C 74.660156 -25.84375 73.304688 -30.625 71.671875 -36.40625 C 70.035156 -42.1875 68.085938 -49.289062 65.828125 -57.71875 C 62.554688 -56.332031 59.660156 -53.40625 57.140625 -48.9375 C 54.628906 -44.476562 51.804688 -38.289062 48.671875 -30.375 C 46.523438 -25.09375 44.507812 -20.46875 42.625 -16.5 C 40.738281 -12.539062 38.851562 -9.238281 36.96875 -6.59375 C 35.082031 -3.957031 33.039062 -2.007812 30.84375 -0.75 C 28.644531 0.5 26.160156 1.125 23.390625 1.125 C 20.367188 1.125 17.695312 0.59375 15.375 -0.46875 C 13.050781 -1.539062 11.164062 -2.925781 9.71875 -4.625 C 8.269531 -6.320312 7.195312 -8.269531 6.5 -10.46875 C 5.8125 -12.664062 5.53125 -14.898438 5.65625 -17.171875 C 5.65625 -17.921875 5.75 -18.828125 5.9375 -19.890625 C 6.125 -20.960938 6.59375 -22.976562 7.34375 -25.9375 C 8.101562 -28.894531 9.207031 -33.046875 10.65625 -38.390625 C 12.101562 -43.734375 14.144531 -51.085938 16.78125 -60.453125 C 19.425781 -69.816406 22.726562 -81.445312 26.6875 -95.34375 C 30.644531 -109.238281 35.457031 -126.1875 41.125 -146.1875 C 40.613281 -147.0625 39.757812 -147.8125 38.5625 -148.4375 C 37.375 -149.070312 35.460938 -149.390625 32.828125 -149.390625 L 32.828125 -151.09375 L 56.40625 -151.09375 L 56.40625 -149.390625 C 53.882812 -149.390625 52.179688 -149.007812 51.296875 -148.25 C 50.421875 -147.5 49.984375 -146.429688 49.984375 -145.046875 C 49.984375 -144.671875 50.015625 -144.296875 50.078125 -143.921875 C 50.140625 -143.546875 50.484375 -142.222656 51.109375 -139.953125 C 51.742188 -137.691406 52.785156 -133.921875 54.234375 -128.640625 C 55.679688 -123.359375 57.816406 -115.65625 60.640625 -105.53125 C 63.472656 -95.40625 67.117188 -82.296875 71.578125 -66.203125 C 76.046875 -50.109375 81.613281 -30.113281 88.28125 -6.21875 Z M 46.96875 -31.125 C 49.863281 -38.289062 52.691406 -44.390625 55.453125 -49.421875 C 58.222656 -54.453125 61.492188 -57.785156 65.265625 -59.421875 L 42.0625 -143.171875 C 41.1875 -140.148438 39.929688 -135.742188 38.296875 -129.953125 C 36.660156 -124.171875 34.800781 -117.601562 32.71875 -110.25 C 30.644531 -102.894531 28.476562 -95.160156 26.21875 -87.046875 C 23.957031 -78.941406 21.753906 -71.113281 19.609375 -63.5625 C 17.472656 -56.019531 15.523438 -49.101562 13.765625 -42.8125 C 12.003906 -36.53125 10.625 -31.566406 9.625 -27.921875 C 8.863281 -25.148438 8.609375 -22.441406 8.859375 -19.796875 C 9.117188 -17.160156 9.875 -14.804688 11.125 -12.734375 C 12.382812 -10.660156 14.207031 -8.960938 16.59375 -7.640625 C 18.988281 -6.316406 21.882812 -5.65625 25.28125 -5.65625 C 26.28125 -5.65625 27.535156 -5.8125 29.046875 -6.125 C 30.554688 -6.445312 32.222656 -7.390625 34.046875 -8.953125 C 35.867188 -10.523438 37.847656 -13.039062 39.984375 -16.5 C 42.117188 -19.957031 44.445312 -24.832031 46.96875 -31.125 Z M 46.96875 -31.125 "/></g></g></g><g clip-path="url(#5b26afeba2)"><g clip-path="url(#b564ce2f6a)"><g transform="matrix(1, 0, 0, 1, 98, 147)"><g clip-path="url(#b095d0f9fe)"><g clip-path="url(#df9d5cb7e8)"><g clip-path="url(#9133b4ec45)"><path fill="#ff3939" d="M 0.597656 0.683594 L 19.367188 0.683594 L 19.367188 19.816406 L 0.597656 19.816406 Z M 0.597656 0.683594 " fill-opacity="1" fill-rule="nonzero"/></g></g></g></g></g></g><path fill="#2563eb" d="M 96.175781 170.492188 L 122.078125 170.492188 C 124.859375 170.492188 127.113281 172.746094 127.113281 175.527344 L 127.113281 185.59375 C 127.113281 188.375 124.859375 190.628906 122.078125 190.628906 L 96.175781 190.628906 C 93.398438 190.628906 91.144531 188.375 91.144531 185.59375 L 91.144531 175.527344 C 91.144531 172.746094 93.398438 170.492188 96.175781 170.492188 Z M 96.175781 170.492188 " fill-opacity="1" fill-rule="nonzero"/><g fill="#ffffff" fill-opacity="1"><g transform="translate(96.278906, 184.31051)"><g><path d="M 5.125 -8.46875 C 6.175781 -8.46875 6.988281 -8.222656 7.5625 -7.734375 C 8.132812 -7.253906 8.421875 -6.613281 8.421875 -5.8125 C 8.421875 -4.914062 8.140625 -4.234375 7.578125 -3.765625 C 7.015625 -3.304688 6.203125 -3.078125 5.140625 -3.078125 L 4.890625 -2.9375 L 3.34375 -2.9375 L 3.34375 0 L 0.78125 0 L 0.78125 -8.46875 Z M 4.6875 -4.71875 C 5.0625 -4.71875 5.335938 -4.785156 5.515625 -4.921875 C 5.703125 -5.066406 5.796875 -5.300781 5.796875 -5.625 C 5.796875 -5.957031 5.703125 -6.195312 5.515625 -6.34375 C 5.335938 -6.488281 5.0625 -6.5625 4.6875 -6.5625 L 3.34375 -6.5625 L 3.34375 -4.71875 Z M 6.25 -4.171875 L 8.921875 0 L 6.0625 0 L 3.984375 -3.703125 Z M 6.25 -4.171875 "/></g></g></g><g fill="#ffffff" fill-opacity="1"><g transform="translate(105.235669, 184.31051)"><g><path d="M 0.78125 0 L 0.78125 -8.46875 L 7.609375 -8.46875 L 7.609375 -6.5 L 3.40625 -6.5 L 3.40625 -5.125 L 6.765625 -5.125 L 6.765625 -3.3125 L 3.40625 -3.3125 L 3.40625 -1.96875 L 7.78125 -1.96875 L 7.78125 0 Z M 0.78125 0 "/></g></g></g><g fill="#ffffff" fill-opacity="1"><g transform="translate(113.2557, 184.31051)"><g><path d="M 8.515625 -2.515625 C 8.359375 -1.890625 8.097656 -1.378906 7.734375 -0.984375 C 7.378906 -0.585938 6.941406 -0.300781 6.421875 -0.125 C 5.898438 0.0390625 5.328125 0.125 4.703125 0.125 C 3.835938 0.125 3.082031 -0.046875 2.4375 -0.390625 C 1.800781 -0.734375 1.3125 -1.226562 0.96875 -1.875 C 0.632812 -2.53125 0.46875 -3.316406 0.46875 -4.234375 C 0.46875 -5.148438 0.632812 -5.929688 0.96875 -6.578125 C 1.3125 -7.234375 1.800781 -7.734375 2.4375 -8.078125 C 3.082031 -8.421875 3.832031 -8.59375 4.6875 -8.59375 C 5.3125 -8.59375 5.878906 -8.503906 6.390625 -8.328125 C 6.910156 -8.160156 7.347656 -7.894531 7.703125 -7.53125 C 8.066406 -7.175781 8.3125 -6.710938 8.4375 -6.140625 L 6.171875 -5.234375 C 6.078125 -5.785156 5.910156 -6.148438 5.671875 -6.328125 C 5.441406 -6.503906 5.140625 -6.59375 4.765625 -6.59375 C 4.429688 -6.59375 4.140625 -6.503906 3.890625 -6.328125 C 3.648438 -6.148438 3.46875 -5.890625 3.34375 -5.546875 C 3.21875 -5.203125 3.15625 -4.765625 3.15625 -4.234375 C 3.15625 -3.710938 3.210938 -3.273438 3.328125 -2.921875 C 3.441406 -2.578125 3.617188 -2.316406 3.859375 -2.140625 C 4.109375 -1.960938 4.429688 -1.875 4.828125 -1.875 C 5.171875 -1.875 5.460938 -1.972656 5.703125 -2.171875 C 5.941406 -2.378906 6.101562 -2.703125 6.1875 -3.140625 Z M 8.515625 -2.515625 "/></g></g></g><g transform="matrix(1, 0, 0, 1, 134, 54)"><g clip-path="url(#fdf209fee4)"><g fill="#ffffff" fill-opacity="1"><g transform="translate(0.943189, 206.302757)"><g><path d="M 116.109375 -39.195312 L 172.394531 -167.136719 L 223.753906 -167.136719 L 223.753906 -155.03125 L 221.804688 -154.96875 C 217.441406 -154.832031 213.964844 -154.300781 211.378906 -153.371094 C 209.023438 -152.523438 207.214844 -151.117188 205.960938 -149.144531 C 204.625 -147.042969 203.722656 -144.070312 203.257812 -140.226562 C 202.769531 -136.160156 202.523438 -130.949219 202.523438 -124.597656 L 202.523438 -40.53125 C 202.523438 -33.476562 202.800781 -27.917969 203.363281 -23.863281 C 203.886719 -20.046875 204.875 -17.128906 206.328125 -15.113281 C 207.675781 -13.234375 209.644531 -11.996094 212.226562 -11.394531 C 215.167969 -10.710938 219.074219 -10.296875 223.945312 -10.160156 L 225.898438 -10.101562 L 225.898438 2.011719 L 152.394531 2.011719 L 152.394531 -10.101562 L 154.347656 -10.160156 C 159.203125 -10.296875 163.09375 -10.742188 166.023438 -11.492188 C 168.664062 -12.167969 170.699219 -13.402344 172.136719 -15.195312 C 173.625 -17.054688 174.628906 -19.773438 175.148438 -23.34375 C 175.707031 -27.179688 175.984375 -32.40625 175.984375 -39.03125 L 175.984375 -138.535156 L 177.996094 -138.535156 L 177.996094 -136.523438 L 175.851562 -136.523438 L 175.851562 -138.535156 L 177.6875 -137.71875 L 114.535156 4.15625 L 107.199219 4.15625 L 45.121094 -137.730469 L 46.964844 -138.535156 L 46.964844 -136.523438 L 46.105469 -136.523438 L 46.105469 -138.535156 L 48.117188 -138.535156 L 48.117188 -40.53125 C 48.117188 -33.476562 48.398438 -27.917969 48.957031 -23.863281 C 49.484375 -20.046875 50.472656 -17.128906 51.921875 -15.113281 C 53.273438 -13.234375 55.238281 -11.996094 57.820312 -11.394531 C 60.765625 -10.710938 64.671875 -10.296875 69.539062 -10.160156 L 71.492188 -10.101562 L 71.492188 2.011719 L 7.640625 2.011719 L 7.640625 -10.101562 L 9.59375 -10.160156 C 14.449219 -10.296875 18.339844 -10.742188 21.269531 -11.492188 C 23.90625 -12.167969 25.945312 -13.402344 27.382812 -15.195312 C 28.867188 -17.054688 29.871094 -19.773438 30.390625 -23.34375 C 30.949219 -27.179688 31.230469 -32.40625 31.230469 -39.03125 L 31.230469 -126.097656 C 31.230469 -132.015625 30.984375 -136.902344 30.496094 -140.746094 C 30.035156 -144.371094 29.136719 -147.199219 27.804688 -149.226562 C 26.5625 -151.121094 24.734375 -152.460938 22.324219 -153.242188 C 19.625 -154.121094 16.074219 -154.695312 11.667969 -154.972656 L 9.785156 -155.089844 L 9.785156 -167.136719 L 64.378906 -167.136719 L 118.941406 -39.175781 L 117.089844 -38.386719 L 117.089844 -40.398438 L 117.949219 -40.398438 L 117.949219 -38.386719 Z M 119.261719 -36.375 L 115.761719 -36.375 L 61.199219 -164.339844 L 63.046875 -165.128906 L 63.046875 -163.117188 L 11.792969 -163.117188 L 11.792969 -165.128906 L 13.804688 -165.128906 L 13.804688 -156.980469 L 11.792969 -156.980469 L 11.921875 -158.984375 C 16.664062 -158.6875 20.546875 -158.050781 23.566406 -157.066406 C 26.875 -155.992188 29.410156 -154.113281 31.167969 -151.433594 C 32.839844 -148.886719 33.945312 -145.496094 34.484375 -141.253906 C 34.996094 -137.238281 35.25 -132.1875 35.25 -126.097656 L 35.25 -39.03125 C 35.25 -32.214844 34.957031 -26.792969 34.371094 -22.765625 C 33.746094 -18.472656 32.464844 -15.113281 30.519531 -12.683594 C 28.523438 -10.1875 25.773438 -8.492188 22.265625 -7.59375 C 19.046875 -6.773438 14.859375 -6.285156 9.707031 -6.140625 L 9.648438 -8.148438 L 11.660156 -8.148438 L 11.660156 0 L 9.648438 0 L 9.648438 -2.011719 L 69.480469 -2.011719 L 69.480469 0 L 67.472656 0 L 67.472656 -8.148438 L 69.480469 -8.148438 L 69.425781 -6.140625 C 64.285156 -6.285156 60.113281 -6.730469 56.910156 -7.476562 C 53.347656 -8.304688 50.59375 -10.070312 48.65625 -12.765625 C 46.816406 -15.324219 45.589844 -18.839844 44.972656 -23.316406 C 44.386719 -27.550781 44.097656 -33.289062 44.097656 -40.53125 L 44.097656 -140.546875 L 48.28125 -140.546875 L 110.355469 1.339844 L 108.511719 2.144531 L 108.511719 0.132812 L 113.230469 0.132812 L 113.230469 2.144531 L 111.394531 1.328125 L 174.542969 -140.546875 L 180.003906 -140.546875 L 180.003906 -39.03125 C 180.003906 -32.214844 179.710938 -26.792969 179.125 -22.765625 C 178.503906 -18.472656 177.21875 -15.113281 175.277344 -12.683594 C 173.28125 -10.1875 170.527344 -8.492188 167.019531 -7.59375 C 163.800781 -6.773438 159.617188 -6.285156 154.460938 -6.140625 L 154.40625 -8.148438 L 156.414062 -8.148438 L 156.414062 0 L 154.40625 0 L 154.40625 -2.011719 L 223.886719 -2.011719 L 223.886719 0 L 221.875 0 L 221.875 -8.148438 L 223.886719 -8.148438 L 223.828125 -6.140625 C 218.691406 -6.285156 214.519531 -6.730469 211.316406 -7.476562 C 207.75 -8.304688 205 -10.070312 203.0625 -12.765625 C 201.222656 -15.324219 199.996094 -18.839844 199.378906 -23.316406 C 198.792969 -27.550781 198.5 -33.289062 198.5 -40.53125 L 198.5 -124.597656 C 198.5 -131.109375 198.757812 -136.480469 199.265625 -140.707031 C 199.804688 -145.15625 200.902344 -148.6875 202.570312 -151.304688 C 204.316406 -154.046875 206.800781 -156 210.019531 -157.15625 C 213.007812 -158.226562 216.894531 -158.839844 221.679688 -158.988281 L 221.742188 -156.980469 L 219.730469 -156.980469 L 219.730469 -165.128906 L 221.742188 -165.128906 L 221.742188 -163.117188 L 173.707031 -163.117188 L 173.707031 -165.128906 L 175.546875 -164.316406 L 119.789062 -37.578125 Z M 119.261719 -36.375 "/></g></g></g><g fill="#2563eb" fill-opacity="1"><g transform="translate(0.943189, 206.302757)"><g><path d="M 117.953125 -38.390625 L 173.703125 -165.125 L 221.75 -165.125 L 221.75 -156.984375 C 217.164062 -156.835938 213.476562 -156.265625 210.6875 -155.265625 C 207.90625 -154.265625 205.765625 -152.582031 204.265625 -150.21875 C 202.765625 -147.863281 201.765625 -144.613281 201.265625 -140.46875 C 200.765625 -136.320312 200.515625 -131.03125 200.515625 -124.59375 L 200.515625 -40.53125 C 200.515625 -33.382812 200.800781 -27.738281 201.375 -23.59375 C 201.945312 -19.445312 203.050781 -16.226562 204.6875 -13.9375 C 206.332031 -11.65625 208.691406 -10.15625 211.765625 -9.4375 C 214.847656 -8.71875 218.890625 -8.289062 223.890625 -8.15625 L 223.890625 0 L 154.40625 0 L 154.40625 -8.15625 C 159.40625 -8.289062 163.441406 -8.75 166.515625 -9.53125 C 169.597656 -10.320312 171.992188 -11.789062 173.703125 -13.9375 C 175.421875 -16.082031 176.566406 -19.117188 177.140625 -23.046875 C 177.710938 -26.984375 178 -32.3125 178 -39.03125 L 178 -138.53125 L 175.859375 -138.53125 L 113.234375 2.140625 L 108.515625 2.140625 L 46.96875 -138.53125 L 46.109375 -138.53125 L 46.109375 -40.53125 C 46.109375 -33.382812 46.394531 -27.738281 46.96875 -23.59375 C 47.539062 -19.445312 48.644531 -16.226562 50.28125 -13.9375 C 51.925781 -11.65625 54.285156 -10.15625 57.359375 -9.4375 C 60.441406 -8.71875 64.484375 -8.289062 69.484375 -8.15625 L 69.484375 0 L 9.65625 0 L 9.65625 -8.15625 C 14.65625 -8.289062 18.691406 -8.75 21.765625 -9.53125 C 24.835938 -10.320312 27.234375 -11.789062 28.953125 -13.9375 C 30.671875 -16.082031 31.8125 -19.117188 32.375 -23.046875 C 32.945312 -26.984375 33.234375 -32.3125 33.234375 -39.03125 L 33.234375 -126.09375 C 33.234375 -132.101562 32.984375 -137.070312 32.484375 -141 C 31.984375 -144.9375 30.984375 -148.046875 29.484375 -150.328125 C 27.984375 -152.617188 25.800781 -154.226562 22.9375 -155.15625 C 20.082031 -156.082031 16.367188 -156.691406 11.796875 -156.984375 L 11.796875 -165.125 L 63.046875 -165.125 L 117.09375 -38.390625 Z M 117.953125 -38.390625 "/></g></g></g></g></g><g transform="matrix(1, 0, 0, 1, 12, 53)"><g clip-path="url(#508e062f1a)"><g fill="#ffffff" fill-opacity="1"><g transform="translate(2.394886, 207.115092)"><g><path d="M 57.964844 -40.667969 C 57.964844 -33.589844 58.246094 -28.015625 58.808594 -23.945312 C 59.335938 -20.117188 60.328125 -17.1875 61.78125 -15.164062 C 63.136719 -13.28125 65.109375 -12.035156 67.703125 -11.433594 C 70.65625 -10.746094 74.574219 -10.332031 79.460938 -10.195312 L 81.421875 -10.136719 L 81.421875 2.015625 L 7.664062 2.015625 L 7.664062 -10.136719 L 9.625 -10.195312 C 14.496094 -10.332031 18.402344 -10.777344 21.339844 -11.53125 C 23.988281 -12.207031 26.035156 -13.445312 27.472656 -15.246094 C 28.96875 -17.113281 29.976562 -19.839844 30.496094 -23.421875 C 31.054688 -27.269531 31.335938 -32.519531 31.335938 -39.164062 L 31.335938 -126.527344 C 31.335938 -132.46875 31.089844 -137.367188 30.597656 -141.230469 C 30.136719 -144.867188 29.238281 -147.703125 27.902344 -149.738281 C 26.652344 -151.636719 24.820312 -152.980469 22.402344 -153.765625 C 19.695312 -154.648438 16.128906 -155.222656 11.710938 -155.5 L 9.816406 -155.617188 L 9.816406 -167.707031 L 79.269531 -167.707031 L 79.269531 -155.558594 L 77.3125 -155.496094 C 72.9375 -155.359375 69.449219 -154.828125 66.851562 -153.894531 C 64.488281 -153.046875 62.675781 -151.632812 61.414062 -149.652344 C 60.074219 -147.542969 59.167969 -144.5625 58.703125 -140.703125 C 58.210938 -136.625 57.964844 -131.394531 57.964844 -125.023438 Z M 53.929688 -40.667969 L 53.929688 -125.023438 C 53.929688 -131.558594 54.1875 -136.945312 54.699219 -141.1875 C 55.238281 -145.652344 56.339844 -149.195312 58.011719 -151.820312 C 59.765625 -154.574219 62.257812 -156.53125 65.488281 -157.691406 C 68.484375 -158.769531 72.386719 -159.382812 77.1875 -159.53125 L 77.25 -157.515625 L 75.234375 -157.515625 L 75.234375 -165.691406 L 77.25 -165.691406 L 77.25 -163.675781 L 11.835938 -163.675781 L 11.835938 -165.691406 L 13.851562 -165.691406 L 13.851562 -157.515625 L 11.835938 -157.515625 L 11.960938 -159.527344 C 16.722656 -159.230469 20.617188 -158.589844 23.648438 -157.605469 C 26.96875 -156.527344 29.507812 -154.640625 31.273438 -151.949219 C 32.953125 -149.394531 34.058594 -145.992188 34.601562 -141.738281 C 35.113281 -137.707031 35.371094 -132.636719 35.371094 -126.527344 L 35.371094 -39.164062 C 35.371094 -32.324219 35.078125 -26.882812 34.488281 -22.84375 C 33.863281 -18.535156 32.574219 -15.164062 30.625 -12.726562 C 28.621094 -10.222656 25.863281 -8.523438 22.339844 -7.621094 C 19.113281 -6.796875 14.910156 -6.308594 9.742188 -6.160156 L 9.683594 -8.175781 L 11.699219 -8.175781 L 11.699219 0 L 9.683594 0 L 9.683594 -2.015625 L 79.402344 -2.015625 L 79.402344 0 L 77.386719 0 L 77.386719 -8.175781 L 79.402344 -8.175781 L 79.34375 -6.160156 C 74.1875 -6.308594 70.003906 -6.753906 66.789062 -7.503906 C 63.210938 -8.335938 60.449219 -10.105469 58.503906 -12.808594 C 56.660156 -15.375 55.429688 -18.902344 54.808594 -23.394531 C 54.222656 -27.644531 53.929688 -33.40625 53.929688 -40.667969 Z M 53.929688 -40.667969 "/></g></g></g><g fill="#2563eb" fill-opacity="1"><g transform="translate(2.394886, 207.115092)"><g><path d="M 55.953125 -40.671875 C 55.953125 -33.492188 56.238281 -27.828125 56.8125 -23.671875 C 57.382812 -19.515625 58.492188 -16.285156 60.140625 -13.984375 C 61.796875 -11.691406 64.164062 -10.1875 67.25 -9.46875 C 70.332031 -8.75 74.382812 -8.316406 79.40625 -8.171875 L 79.40625 0 L 9.6875 0 L 9.6875 -8.171875 C 14.707031 -8.316406 18.757812 -8.785156 21.84375 -9.578125 C 24.925781 -10.367188 27.328125 -11.835938 29.046875 -13.984375 C 30.765625 -16.140625 31.910156 -19.1875 32.484375 -23.125 C 33.066406 -27.070312 33.359375 -32.421875 33.359375 -39.171875 L 33.359375 -126.53125 C 33.359375 -132.550781 33.101562 -137.535156 32.59375 -141.484375 C 32.09375 -145.429688 31.085938 -148.550781 29.578125 -150.84375 C 28.078125 -153.144531 25.890625 -154.757812 23.015625 -155.6875 C 20.148438 -156.625 16.421875 -157.234375 11.828125 -157.515625 L 11.828125 -165.6875 L 77.25 -165.6875 L 77.25 -157.515625 C 72.65625 -157.367188 68.957031 -156.796875 66.15625 -155.796875 C 63.363281 -154.796875 61.210938 -153.109375 59.703125 -150.734375 C 58.203125 -148.367188 57.203125 -145.101562 56.703125 -140.9375 C 56.203125 -136.78125 55.953125 -131.476562 55.953125 -125.03125 Z M 55.953125 -40.671875 "/></g></g></g></g></g><g transform="matrix(1, 0, 0, 1, 25, 264)"><g clip-path="url(#4e813d7cac)"><g fill="#ffffff" fill-opacity="1"><g transform="translate(0.326565, 16.090737)"><g><path d="M 6.484375 -11.96875 C 7.703125 -11.96875 8.679688 -11.648438 9.421875 -11.015625 C 10.160156 -10.390625 10.53125 -9.539062 10.53125 -8.46875 C 10.53125 -7.382812 10.15625 -6.546875 9.40625 -5.953125 C 8.664062 -5.359375 7.6875 -5.0625 6.46875 -5.0625 L 6.34375 -4.96875 L 3.40625 -4.96875 L 3.40625 0 L 1.953125 0 L 1.953125 -11.96875 Z M 6.46875 -6.328125 C 7.320312 -6.328125 7.957031 -6.503906 8.375 -6.859375 C 8.800781 -7.210938 9.015625 -7.75 9.015625 -8.46875 C 9.015625 -9.175781 8.800781 -9.707031 8.375 -10.0625 C 7.957031 -10.425781 7.320312 -10.609375 6.46875 -10.609375 L 3.40625 -10.609375 L 3.40625 -6.328125 Z M 7.296875 -6.03125 L 11.25 0 L 9.53125 0 L 6.09375 -5.234375 Z M 7.296875 -6.03125 "/></g></g></g><g fill="#ffffff" fill-opacity="1"><g transform="translate(10.379657, 16.090737)"><g><path d="M 1.953125 0 L 1.953125 -11.96875 L 10.34375 -11.96875 L 10.34375 -10.609375 L 3.40625 -10.609375 L 3.40625 -6.75 L 8.8125 -6.75 L 8.8125 -5.390625 L 3.40625 -5.390625 L 3.40625 -1.359375 L 10.625 -1.359375 L 10.625 0 Z M 1.953125 0 "/></g></g></g><g fill="#ffffff" fill-opacity="1"><g transform="translate(19.943635, 16.090737)"><g><path d="M 11.59375 -3.0625 C 11.34375 -2.382812 10.984375 -1.800781 10.515625 -1.3125 C 10.046875 -0.820312 9.492188 -0.445312 8.859375 -0.1875 C 8.222656 0.0625 7.53125 0.1875 6.78125 0.1875 C 5.644531 0.1875 4.660156 -0.0625 3.828125 -0.5625 C 3.003906 -1.070312 2.363281 -1.785156 1.90625 -2.703125 C 1.457031 -3.617188 1.234375 -4.710938 1.234375 -5.984375 C 1.234375 -7.253906 1.457031 -8.347656 1.90625 -9.265625 C 2.363281 -10.179688 3.003906 -10.890625 3.828125 -11.390625 C 4.660156 -11.890625 5.632812 -12.140625 6.75 -12.140625 C 7.519531 -12.140625 8.207031 -12.035156 8.8125 -11.828125 C 9.414062 -11.617188 9.929688 -11.304688 10.359375 -10.890625 C 10.785156 -10.472656 11.125 -9.960938 11.375 -9.359375 L 9.953125 -8.6875 C 9.679688 -9.375 9.296875 -9.894531 8.796875 -10.25 C 8.296875 -10.601562 7.644531 -10.78125 6.84375 -10.78125 C 6.039062 -10.78125 5.328125 -10.585938 4.703125 -10.203125 C 4.085938 -9.828125 3.609375 -9.28125 3.265625 -8.5625 C 2.921875 -7.851562 2.75 -6.992188 2.75 -5.984375 C 2.75 -4.984375 2.910156 -4.117188 3.234375 -3.390625 C 3.566406 -2.671875 4.035156 -2.117188 4.640625 -1.734375 C 5.242188 -1.359375 5.957031 -1.171875 6.78125 -1.171875 C 7.570312 -1.171875 8.265625 -1.375 8.859375 -1.78125 C 9.453125 -2.1875 9.882812 -2.796875 10.15625 -3.609375 Z M 11.59375 -3.0625 "/></g></g></g><g fill="#ffffff" fill-opacity="1"><g transform="translate(30.377155, 16.090737)"><g><path d="M 6.78125 -12.140625 C 7.914062 -12.140625 8.894531 -11.890625 9.71875 -11.390625 C 10.550781 -10.890625 11.191406 -10.179688 11.640625 -9.265625 C 12.097656 -8.347656 12.328125 -7.253906 12.328125 -5.984375 C 12.328125 -4.710938 12.097656 -3.617188 11.640625 -2.703125 C 11.191406 -1.785156 10.550781 -1.070312 9.71875 -0.5625 C 8.894531 -0.0625 7.914062 0.1875 6.78125 0.1875 C 5.644531 0.1875 4.660156 -0.0625 3.828125 -0.5625 C 3.003906 -1.070312 2.363281 -1.785156 1.90625 -2.703125 C 1.457031 -3.617188 1.234375 -4.710938 1.234375 -5.984375 C 1.234375 -7.253906 1.457031 -8.347656 1.90625 -9.265625 C 2.363281 -10.179688 3.003906 -10.890625 3.828125 -11.390625 C 4.660156 -11.890625 5.644531 -12.140625 6.78125 -12.140625 Z M 6.78125 -10.78125 C 5.957031 -10.78125 5.242188 -10.585938 4.640625 -10.203125 C 4.035156 -9.828125 3.566406 -9.28125 3.234375 -8.5625 C 2.910156 -7.84375 2.75 -6.984375 2.75 -5.984375 C 2.75 -4.984375 2.910156 -4.117188 3.234375 -3.390625 C 3.566406 -2.671875 4.035156 -2.117188 4.640625 -1.734375 C 5.242188 -1.359375 5.957031 -1.171875 6.78125 -1.171875 C 7.613281 -1.171875 8.328125 -1.359375 8.921875 -1.734375 C 9.523438 -2.117188 9.988281 -2.671875 10.3125 -3.390625 C 10.632812 -4.117188 10.796875 -4.984375 10.796875 -5.984375 C 10.796875 -6.984375 10.632812 -7.84375 10.3125 -8.5625 C 9.988281 -9.28125 9.523438 -9.828125 8.921875 -10.203125 C 8.328125 -10.585938 7.613281 -10.78125 6.78125 -10.78125 Z M 6.78125 -10.78125 "/></g></g></g><g fill="#ffffff" fill-opacity="1"><g transform="translate(41.933838, 16.090737)"><g><path d="M 6.484375 -11.96875 C 7.703125 -11.96875 8.679688 -11.648438 9.421875 -11.015625 C 10.160156 -10.390625 10.53125 -9.539062 10.53125 -8.46875 C 10.53125 -7.382812 10.15625 -6.546875 9.40625 -5.953125 C 8.664062 -5.359375 7.6875 -5.0625 6.46875 -5.0625 L 6.34375 -4.96875 L 3.40625 -4.96875 L 3.40625 0 L 1.953125 0 L 1.953125 -11.96875 Z M 6.46875 -6.328125 C 7.320312 -6.328125 7.957031 -6.503906 8.375 -6.859375 C 8.800781 -7.210938 9.015625 -7.75 9.015625 -8.46875 C 9.015625 -9.175781 8.800781 -9.707031 8.375 -10.0625 C 7.957031 -10.425781 7.320312 -10.609375 6.46875 -10.609375 L 3.40625 -10.609375 L 3.40625 -6.328125 Z M 7.296875 -6.03125 L 11.25 0 L 9.53125 0 L 6.09375 -5.234375 Z M 7.296875 -6.03125 "/></g></g></g><g fill="#ffffff" fill-opacity="1"><g transform="translate(51.98693, 16.090737)"><g><path d="M 5.8125 -11.96875 C 7.6875 -11.96875 9.15625 -11.445312 10.21875 -10.40625 C 11.289062 -9.375 11.828125 -7.898438 11.828125 -5.984375 C 11.828125 -4.054688 11.289062 -2.578125 10.21875 -1.546875 C 9.15625 -0.515625 7.6875 0 5.8125 0 L 1.953125 0 L 1.953125 -11.96875 Z M 5.96875 -1.359375 C 7.332031 -1.359375 8.394531 -1.765625 9.15625 -2.578125 C 9.925781 -3.398438 10.3125 -4.535156 10.3125 -5.984375 C 10.3125 -7.429688 9.925781 -8.5625 9.15625 -9.375 C 8.394531 -10.195312 7.332031 -10.609375 5.96875 -10.609375 L 3.40625 -10.609375 L 3.40625 -1.359375 Z M 5.96875 -1.359375 "/></g></g></g><g fill="#ffffff" fill-opacity="1"><g transform="translate(63.061185, 16.090737)"><g/></g></g><g fill="#ffffff" fill-opacity="1"><g transform="translate(67.244858, 16.090737)"><g/></g></g><g fill="#ffffff" fill-opacity="1"><g transform="translate(71.43781, 16.090737)"><g><path d="M 10.375 -11.96875 L 10.375 -10.609375 L 6.203125 -10.609375 L 6.203125 0 L 4.75 0 L 4.75 -10.609375 L 0.578125 -10.609375 L 0.578125 -11.96875 Z M 10.375 -11.96875 "/></g></g></g><g fill="#ffffff" fill-opacity="1"><g transform="translate(80.385858, 16.090737)"><g><path d="M 6.484375 -11.96875 C 7.703125 -11.96875 8.679688 -11.648438 9.421875 -11.015625 C 10.160156 -10.390625 10.53125 -9.539062 10.53125 -8.46875 C 10.53125 -7.382812 10.15625 -6.546875 9.40625 -5.953125 C 8.664062 -5.359375 7.6875 -5.0625 6.46875 -5.0625 L 6.34375 -4.96875 L 3.40625 -4.96875 L 3.40625 0 L 1.953125 0 L 1.953125 -11.96875 Z M 6.46875 -6.328125 C 7.320312 -6.328125 7.957031 -6.503906 8.375 -6.859375 C 8.800781 -7.210938 9.015625 -7.75 9.015625 -8.46875 C 9.015625 -9.175781 8.800781 -9.707031 8.375 -10.0625 C 7.957031 -10.425781 7.320312 -10.609375 6.46875 -10.609375 L 3.40625 -10.609375 L 3.40625 -6.328125 Z M 7.296875 -6.03125 L 11.25 0 L 9.53125 0 L 6.09375 -5.234375 Z M 7.296875 -6.03125 "/></g></g></g><g fill="#ffffff" fill-opacity="1"><g transform="translate(90.43895, 16.090737)"><g><path d="M 11.484375 0 L 9.953125 0 L 8.6875 -3.3125 L 3.265625 -3.3125 L 2 0 L 0.46875 0 L 5.125 -11.96875 L 6.84375 -11.96875 Z M 3.78125 -4.671875 L 8.15625 -4.671875 L 5.96875 -10.5625 Z M 3.78125 -4.671875 "/></g></g></g><g fill="#ffffff" fill-opacity="1"><g transform="translate(100.401465, 16.090737)"><g><path d="M 11.34375 -11.96875 L 11.34375 0 L 9.546875 0 L 4.546875 -8.015625 L 3.28125 -10.265625 L 3.265625 -10.265625 L 3.328125 -8.453125 L 3.328125 0 L 1.953125 0 L 1.953125 -11.96875 L 3.75 -11.96875 L 8.734375 -3.984375 L 10.015625 -1.6875 L 10.046875 -1.6875 L 9.96875 -3.515625 L 9.96875 -11.96875 Z M 11.34375 -11.96875 "/></g></g></g><g fill="#ffffff" fill-opacity="1"><g transform="translate(111.704526, 16.090737)"><g><path d="M 5.796875 -12.140625 C 6.847656 -12.140625 7.753906 -11.925781 8.515625 -11.5 C 9.273438 -11.070312 9.910156 -10.441406 10.421875 -9.609375 L 9.203125 -8.65625 C 8.753906 -9.4375 8.25 -9.984375 7.6875 -10.296875 C 7.125 -10.617188 6.445312 -10.78125 5.65625 -10.78125 C 5.007812 -10.78125 4.476562 -10.6875 4.0625 -10.5 C 3.644531 -10.320312 3.335938 -10.085938 3.140625 -9.796875 C 2.953125 -9.503906 2.859375 -9.171875 2.859375 -8.796875 C 2.859375 -8.367188 2.988281 -7.992188 3.25 -7.671875 C 3.519531 -7.359375 4.054688 -7.109375 4.859375 -6.921875 L 7.453125 -6.34375 C 8.597656 -6.09375 9.394531 -5.707031 9.84375 -5.1875 C 10.300781 -4.675781 10.53125 -4.039062 10.53125 -3.28125 C 10.53125 -2.601562 10.335938 -2 9.953125 -1.46875 C 9.578125 -0.945312 9.046875 -0.539062 8.359375 -0.25 C 7.671875 0.0390625 6.859375 0.1875 5.921875 0.1875 C 5.054688 0.1875 4.289062 0.0664062 3.625 -0.171875 C 2.96875 -0.410156 2.40625 -0.726562 1.9375 -1.125 C 1.46875 -1.519531 1.082031 -1.96875 0.78125 -2.46875 L 2.046875 -3.5 C 2.273438 -3.039062 2.570312 -2.632812 2.9375 -2.28125 C 3.300781 -1.9375 3.738281 -1.664062 4.25 -1.46875 C 4.757812 -1.269531 5.347656 -1.171875 6.015625 -1.171875 C 6.628906 -1.171875 7.160156 -1.242188 7.609375 -1.390625 C 8.066406 -1.546875 8.414062 -1.769531 8.65625 -2.0625 C 8.90625 -2.363281 9.03125 -2.726562 9.03125 -3.15625 C 9.03125 -3.539062 8.898438 -3.882812 8.640625 -4.1875 C 8.390625 -4.5 7.914062 -4.734375 7.21875 -4.890625 L 4.40625 -5.53125 C 3.664062 -5.695312 3.066406 -5.925781 2.609375 -6.21875 C 2.160156 -6.519531 1.835938 -6.875 1.640625 -7.28125 C 1.441406 -7.6875 1.34375 -8.125 1.34375 -8.59375 C 1.34375 -9.226562 1.519531 -9.816406 1.875 -10.359375 C 2.226562 -10.898438 2.738281 -11.332031 3.40625 -11.65625 C 4.082031 -11.976562 4.878906 -12.140625 5.796875 -12.140625 Z M 5.796875 -12.140625 "/></g></g></g><g fill="#ffffff" fill-opacity="1"><g transform="translate(121.322852, 16.090737)"><g><path d="M 11.59375 -3.0625 C 11.34375 -2.382812 10.984375 -1.800781 10.515625 -1.3125 C 10.046875 -0.820312 9.492188 -0.445312 8.859375 -0.1875 C 8.222656 0.0625 7.53125 0.1875 6.78125 0.1875 C 5.644531 0.1875 4.660156 -0.0625 3.828125 -0.5625 C 3.003906 -1.070312 2.363281 -1.785156 1.90625 -2.703125 C 1.457031 -3.617188 1.234375 -4.710938 1.234375 -5.984375 C 1.234375 -7.253906 1.457031 -8.347656 1.90625 -9.265625 C 2.363281 -10.179688 3.003906 -10.890625 3.828125 -11.390625 C 4.660156 -11.890625 5.632812 -12.140625 6.75 -12.140625 C 7.519531 -12.140625 8.207031 -12.035156 8.8125 -11.828125 C 9.414062 -11.617188 9.929688 -11.304688 10.359375 -10.890625 C 10.785156 -10.472656 11.125 -9.960938 11.375 -9.359375 L 9.953125 -8.6875 C 9.679688 -9.375 9.296875 -9.894531 8.796875 -10.25 C 8.296875 -10.601562 7.644531 -10.78125 6.84375 -10.78125 C 6.039062 -10.78125 5.328125 -10.585938 4.703125 -10.203125 C 4.085938 -9.828125 3.609375 -9.28125 3.265625 -8.5625 C 2.921875 -7.851562 2.75 -6.992188 2.75 -5.984375 C 2.75 -4.984375 2.910156 -4.117188 3.234375 -3.390625 C 3.566406 -2.671875 4.035156 -2.117188 4.640625 -1.734375 C 5.242188 -1.359375 5.957031 -1.171875 6.78125 -1.171875 C 7.570312 -1.171875 8.265625 -1.375 8.859375 -1.78125 C 9.453125 -2.1875 9.882812 -2.796875 10.15625 -3.609375 Z M 11.59375 -3.0625 "/></g></g></g><g fill="#ffffff" fill-opacity="1"><g transform="translate(131.756372, 16.090737)"><g><path d="M 6.484375 -11.96875 C 7.703125 -11.96875 8.679688 -11.648438 9.421875 -11.015625 C 10.160156 -10.390625 10.53125 -9.539062 10.53125 -8.46875 C 10.53125 -7.382812 10.15625 -6.546875 9.40625 -5.953125 C 8.664062 -5.359375 7.6875 -5.0625 6.46875 -5.0625 L 6.34375 -4.96875 L 3.40625 -4.96875 L 3.40625 0 L 1.953125 0 L 1.953125 -11.96875 Z M 6.46875 -6.328125 C 7.320312 -6.328125 7.957031 -6.503906 8.375 -6.859375 C 8.800781 -7.210938 9.015625 -7.75 9.015625 -8.46875 C 9.015625 -9.175781 8.800781 -9.707031 8.375 -10.0625 C 7.957031 -10.425781 7.320312 -10.609375 6.46875 -10.609375 L 3.40625 -10.609375 L 3.40625 -6.328125 Z M 7.296875 -6.03125 L 11.25 0 L 9.53125 0 L 6.09375 -5.234375 Z M 7.296875 -6.03125 "/></g></g></g><g fill="#ffffff" fill-opacity="1"><g transform="translate(141.809464, 16.090737)"><g><path d="M 3.40625 -11.96875 L 3.40625 0 L 1.953125 0 L 1.953125 -11.96875 Z M 3.40625 -11.96875 "/></g></g></g><g fill="#ffffff" fill-opacity="1"><g transform="translate(145.177932, 16.090737)"><g><path d="M 1.953125 0 L 1.953125 -11.96875 L 6.21875 -11.96875 C 7.632812 -11.96875 8.664062 -11.671875 9.3125 -11.078125 C 9.96875 -10.484375 10.296875 -9.675781 10.296875 -8.65625 C 10.296875 -8.050781 10.117188 -7.503906 9.765625 -7.015625 C 9.421875 -6.535156 8.925781 -6.226562 8.28125 -6.09375 L 8.28125 -6.078125 C 9 -5.941406 9.566406 -5.613281 9.984375 -5.09375 C 10.398438 -4.582031 10.609375 -4.003906 10.609375 -3.359375 C 10.609375 -2.335938 10.222656 -1.519531 9.453125 -0.90625 C 8.691406 -0.300781 7.609375 0 6.203125 0 Z M 3.40625 -1.359375 L 6.546875 -1.359375 C 7.398438 -1.359375 8.035156 -1.53125 8.453125 -1.875 C 8.867188 -2.226562 9.078125 -2.722656 9.078125 -3.359375 C 9.078125 -3.992188 8.867188 -4.484375 8.453125 -4.828125 C 8.035156 -5.171875 7.398438 -5.34375 6.546875 -5.34375 L 3.40625 -5.34375 Z M 3.40625 -6.703125 L 6.234375 -6.703125 C 7.921875 -6.703125 8.765625 -7.351562 8.765625 -8.65625 C 8.765625 -9.957031 7.921875 -10.609375 6.234375 -10.609375 L 3.40625 -10.609375 Z M 3.40625 -6.703125 "/></g></g></g><g fill="#ffffff" fill-opacity="1"><g transform="translate(155.013642, 16.090737)"><g><path d="M 1.953125 0 L 1.953125 -11.96875 L 10.34375 -11.96875 L 10.34375 -10.609375 L 3.40625 -10.609375 L 3.40625 -6.75 L 8.8125 -6.75 L 8.8125 -5.390625 L 3.40625 -5.390625 L 3.40625 -1.359375 L 10.625 -1.359375 L 10.625 0 Z M 1.953125 0 "/></g></g></g><g fill="#ffffff" fill-opacity="1"><g transform="translate(164.582736, 16.090737)"><g/></g></g><g fill="#ffffff" fill-opacity="1"><g transform="translate(168.766409, 16.090737)"><g/></g></g><g fill="#ffffff" fill-opacity="1"><g transform="translate(172.959361, 16.090737)"><g><path d="M 5.796875 -12.140625 C 6.847656 -12.140625 7.753906 -11.925781 8.515625 -11.5 C 9.273438 -11.070312 9.910156 -10.441406 10.421875 -9.609375 L 9.203125 -8.65625 C 8.753906 -9.4375 8.25 -9.984375 7.6875 -10.296875 C 7.125 -10.617188 6.445312 -10.78125 5.65625 -10.78125 C 5.007812 -10.78125 4.476562 -10.6875 4.0625 -10.5 C 3.644531 -10.320312 3.335938 -10.085938 3.140625 -9.796875 C 2.953125 -9.503906 2.859375 -9.171875 2.859375 -8.796875 C 2.859375 -8.367188 2.988281 -7.992188 3.25 -7.671875 C 3.519531 -7.359375 4.054688 -7.109375 4.859375 -6.921875 L 7.453125 -6.34375 C 8.597656 -6.09375 9.394531 -5.707031 9.84375 -5.1875 C 10.300781 -4.675781 10.53125 -4.039062 10.53125 -3.28125 C 10.53125 -2.601562 10.335938 -2 9.953125 -1.46875 C 9.578125 -0.945312 9.046875 -0.539062 8.359375 -0.25 C 7.671875 0.0390625 6.859375 0.1875 5.921875 0.1875 C 5.054688 0.1875 4.289062 0.0664062 3.625 -0.171875 C 2.96875 -0.410156 2.40625 -0.726562 1.9375 -1.125 C 1.46875 -1.519531 1.082031 -1.96875 0.78125 -2.46875 L 2.046875 -3.5 C 2.273438 -3.039062 2.570312 -2.632812 2.9375 -2.28125 C 3.300781 -1.9375 3.738281 -1.664062 4.25 -1.46875 C 4.757812 -1.269531 5.347656 -1.171875 6.015625 -1.171875 C 6.628906 -1.171875 7.160156 -1.242188 7.609375 -1.390625 C 8.066406 -1.546875 8.414062 -1.769531 8.65625 -2.0625 C 8.90625 -2.363281 9.03125 -2.726562 9.03125 -3.15625 C 9.03125 -3.539062 8.898438 -3.882812 8.640625 -4.1875 C 8.390625 -4.5 7.914062 -4.734375 7.21875 -4.890625 L 4.40625 -5.53125 C 3.664062 -5.695312 3.066406 -5.925781 2.609375 -6.21875 C 2.160156 -6.519531 1.835938 -6.875 1.640625 -7.28125 C 1.441406 -7.6875 1.34375 -8.125 1.34375 -8.59375 C 1.34375 -9.226562 1.519531 -9.816406 1.875 -10.359375 C 2.226562 -10.898438 2.738281 -11.332031 3.40625 -11.65625 C 4.082031 -11.976562 4.878906 -12.140625 5.796875 -12.140625 Z M 5.796875 -12.140625 "/></g></g></g><g fill="#ffffff" fill-opacity="1"><g transform="translate(182.577688, 16.090737)"><g><path d="M 6.78125 -12.140625 C 7.914062 -12.140625 8.894531 -11.890625 9.71875 -11.390625 C 10.550781 -10.890625 11.191406 -10.179688 11.640625 -9.265625 C 12.097656 -8.347656 12.328125 -7.253906 12.328125 -5.984375 C 12.328125 -4.710938 12.097656 -3.617188 11.640625 -2.703125 C 11.191406 -1.785156 10.550781 -1.070312 9.71875 -0.5625 C 8.894531 -0.0625 7.914062 0.1875 6.78125 0.1875 C 5.644531 0.1875 4.660156 -0.0625 3.828125 -0.5625 C 3.003906 -1.070312 2.363281 -1.785156 1.90625 -2.703125 C 1.457031 -3.617188 1.234375 -4.710938 1.234375 -5.984375 C 1.234375 -7.253906 1.457031 -8.347656 1.90625 -9.265625 C 2.363281 -10.179688 3.003906 -10.890625 3.828125 -11.390625 C 4.660156 -11.890625 5.644531 -12.140625 6.78125 -12.140625 Z M 6.78125 -10.78125 C 5.957031 -10.78125 5.242188 -10.585938 4.640625 -10.203125 C 4.035156 -9.828125 3.566406 -9.28125 3.234375 -8.5625 C 2.910156 -7.84375 2.75 -6.984375 2.75 -5.984375 C 2.75 -4.984375 2.910156 -4.117188 3.234375 -3.390625 C 3.566406 -2.671875 4.035156 -2.117188 4.640625 -1.734375 C 5.242188 -1.359375 5.957031 -1.171875 6.78125 -1.171875 C 7.613281 -1.171875 8.328125 -1.359375 8.921875 -1.734375 C 9.523438 -2.117188 9.988281 -2.671875 10.3125 -3.390625 C 10.632812 -4.117188 10.796875 -4.984375 10.796875 -5.984375 C 10.796875 -6.984375 10.632812 -7.84375 10.3125 -8.5625 C 9.988281 -9.28125 9.523438 -9.828125 8.921875 -10.203125 C 8.328125 -10.585938 7.613281 -10.78125 6.78125 -10.78125 Z M 6.78125 -10.78125 "/></g></g></g><g fill="#ffffff" fill-opacity="1"><g transform="translate(194.134371, 16.090737)"><g><path d="M 6.484375 -11.96875 C 7.703125 -11.96875 8.679688 -11.648438 9.421875 -11.015625 C 10.160156 -10.390625 10.53125 -9.539062 10.53125 -8.46875 C 10.53125 -7.382812 10.15625 -6.546875 9.40625 -5.953125 C 8.664062 -5.359375 7.6875 -5.0625 6.46875 -5.0625 L 6.34375 -4.96875 L 3.40625 -4.96875 L 3.40625 0 L 1.953125 0 L 1.953125 -11.96875 Z M 6.46875 -6.328125 C 7.320312 -6.328125 7.957031 -6.503906 8.375 -6.859375 C 8.800781 -7.210938 9.015625 -7.75 9.015625 -8.46875 C 9.015625 -9.175781 8.800781 -9.707031 8.375 -10.0625 C 7.957031 -10.425781 7.320312 -10.609375 6.46875 -10.609375 L 3.40625 -10.609375 L 3.40625 -6.328125 Z M 7.296875 -6.03125 L 11.25 0 L 9.53125 0 L 6.09375 -5.234375 Z M 7.296875 -6.03125 "/></g></g></g><g fill="#ffffff" fill-opacity="1"><g transform="translate(204.187463, 16.090737)"><g><path d="M 10.375 -11.96875 L 10.375 -10.609375 L 6.203125 -10.609375 L 6.203125 0 L 4.75 0 L 4.75 -10.609375 L 0.578125 -10.609375 L 0.578125 -11.96875 Z M 10.375 -11.96875 "/></g></g></g><g fill="#ffffff" fill-opacity="1"><g transform="translate(213.14239, 16.090737)"><g/></g></g><g fill="#ffffff" fill-opacity="1"><g transform="translate(217.326063, 16.090737)"><g/></g></g><g fill="#ffffff" fill-opacity="1"><g transform="translate(221.519016, 16.090737)"><g><path d="M 11.59375 -3.0625 C 11.34375 -2.382812 10.984375 -1.800781 10.515625 -1.3125 C 10.046875 -0.820312 9.492188 -0.445312 8.859375 -0.1875 C 8.222656 0.0625 7.53125 0.1875 6.78125 0.1875 C 5.644531 0.1875 4.660156 -0.0625 3.828125 -0.5625 C 3.003906 -1.070312 2.363281 -1.785156 1.90625 -2.703125 C 1.457031 -3.617188 1.234375 -4.710938 1.234375 -5.984375 C 1.234375 -7.253906 1.457031 -8.347656 1.90625 -9.265625 C 2.363281 -10.179688 3.003906 -10.890625 3.828125 -11.390625 C 4.660156 -11.890625 5.632812 -12.140625 6.75 -12.140625 C 7.519531 -12.140625 8.207031 -12.035156 8.8125 -11.828125 C 9.414062 -11.617188 9.929688 -11.304688 10.359375 -10.890625 C 10.785156 -10.472656 11.125 -9.960938 11.375 -9.359375 L 9.953125 -8.6875 C 9.679688 -9.375 9.296875 -9.894531 8.796875 -10.25 C 8.296875 -10.601562 7.644531 -10.78125 6.84375 -10.78125 C 6.039062 -10.78125 5.328125 -10.585938 4.703125 -10.203125 C 4.085938 -9.828125 3.609375 -9.28125 3.265625 -8.5625 C 2.921875 -7.851562 2.75 -6.992188 2.75 -5.984375 C 2.75 -4.984375 2.910156 -4.117188 3.234375 -3.390625 C 3.566406 -2.671875 4.035156 -2.117188 4.640625 -1.734375 C 5.242188 -1.359375 5.957031 -1.171875 6.78125 -1.171875 C 7.570312 -1.171875 8.265625 -1.375 8.859375 -1.78125 C 9.453125 -2.1875 9.882812 -2.796875 10.15625 -3.609375 Z M 11.59375 -3.0625 "/></g></g></g><g fill="#ffffff" fill-opacity="1"><g transform="translate(231.952535, 16.090737)"><g><path d="M 6.78125 -12.140625 C 7.914062 -12.140625 8.894531 -11.890625 9.71875 -11.390625 C 10.550781 -10.890625 11.191406 -10.179688 11.640625 -9.265625 C 12.097656 -8.347656 12.328125 -7.253906 12.328125 -5.984375 C 12.328125 -4.710938 12.097656 -3.617188 11.640625 -2.703125 C 11.191406 -1.785156 10.550781 -1.070312 9.71875 -0.5625 C 8.894531 -0.0625 7.914062 0.1875 6.78125 0.1875 C 5.644531 0.1875 4.660156 -0.0625 3.828125 -0.5625 C 3.003906 -1.070312 2.363281 -1.785156 1.90625 -2.703125 C 1.457031 -3.617188 1.234375 -4.710938 1.234375 -5.984375 C 1.234375 -7.253906 1.457031 -8.347656 1.90625 -9.265625 C 2.363281 -10.179688 3.003906 -10.890625 3.828125 -11.390625 C 4.660156 -11.890625 5.644531 -12.140625 6.78125 -12.140625 Z M 6.78125 -10.78125 C 5.957031 -10.78125 5.242188 -10.585938 4.640625 -10.203125 C 4.035156 -9.828125 3.566406 -9.28125 3.234375 -8.5625 C 2.910156 -7.84375 2.75 -6.984375 2.75 -5.984375 C 2.75 -4.984375 2.910156 -4.117188 3.234375 -3.390625 C 3.566406 -2.671875 4.035156 -2.117188 4.640625 -1.734375 C 5.242188 -1.359375 5.957031 -1.171875 6.78125 -1.171875 C 7.613281 -1.171875 8.328125 -1.359375 8.921875 -1.734375 C 9.523438 -2.117188 9.988281 -2.671875 10.3125 -3.390625 C 10.632812 -4.117188 10.796875 -4.984375 10.796875 -5.984375 C 10.796875 -6.984375 10.632812 -7.84375 10.3125 -8.5625 C 9.988281 -9.28125 9.523438 -9.828125 8.921875 -10.203125 C 8.328125 -10.585938 7.613281 -10.78125 6.78125 -10.78125 Z M 6.78125 -10.78125 "/></g></g></g><g fill="#ffffff" fill-opacity="1"><g transform="translate(243.509219, 16.090737)"><g><path d="M 3.40625 -1.359375 L 10.265625 -1.359375 L 10.265625 0 L 1.953125 0 L 1.953125 -11.96875 L 3.40625 -11.96875 Z M 3.40625 -1.359375 "/></g></g></g><g fill="#ffffff" fill-opacity="1"><g transform="translate(252.34857, 16.090737)"><g><path d="M 3.40625 -1.359375 L 10.265625 -1.359375 L 10.265625 0 L 1.953125 0 L 1.953125 -11.96875 L 3.40625 -11.96875 Z M 3.40625 -1.359375 "/></g></g></g><g fill="#ffffff" fill-opacity="1"><g transform="translate(261.187921, 16.090737)"><g><path d="M 11.484375 0 L 9.953125 0 L 8.6875 -3.3125 L 3.265625 -3.3125 L 2 0 L 0.46875 0 L 5.125 -11.96875 L 6.84375 -11.96875 Z M 3.78125 -4.671875 L 8.15625 -4.671875 L 5.96875 -10.5625 Z M 3.78125 -4.671875 "/></g></g></g><g fill="#ffffff" fill-opacity="1"><g transform="translate(271.150436, 16.090737)"><g><path d="M 1.953125 0 L 1.953125 -11.96875 L 6.21875 -11.96875 C 7.632812 -11.96875 8.664062 -11.671875 9.3125 -11.078125 C 9.96875 -10.484375 10.296875 -9.675781 10.296875 -8.65625 C 10.296875 -8.050781 10.117188 -7.503906 9.765625 -7.015625 C 9.421875 -6.535156 8.925781 -6.226562 8.28125 -6.09375 L 8.28125 -6.078125 C 9 -5.941406 9.566406 -5.613281 9.984375 -5.09375 C 10.398438 -4.582031 10.609375 -4.003906 10.609375 -3.359375 C 10.609375 -2.335938 10.222656 -1.519531 9.453125 -0.90625 C 8.691406 -0.300781 7.609375 0 6.203125 0 Z M 3.40625 -1.359375 L 6.546875 -1.359375 C 7.398438 -1.359375 8.035156 -1.53125 8.453125 -1.875 C 8.867188 -2.226562 9.078125 -2.722656 9.078125 -3.359375 C 9.078125 -3.992188 8.867188 -4.484375 8.453125 -4.828125 C 8.035156 -5.171875 7.398438 -5.34375 6.546875 -5.34375 L 3.40625 -5.34375 Z M 3.40625 -6.703125 L 6.234375 -6.703125 C 7.921875 -6.703125 8.765625 -7.351562 8.765625 -8.65625 C 8.765625 -9.957031 7.921875 -10.609375 6.234375 -10.609375 L 3.40625 -10.609375 Z M 3.40625 -6.703125 "/></g></g></g><g fill="#ffffff" fill-opacity="1"><g transform="translate(280.986145, 16.090737)"><g><path d="M 6.78125 -12.140625 C 7.914062 -12.140625 8.894531 -11.890625 9.71875 -11.390625 C 10.550781 -10.890625 11.191406 -10.179688 11.640625 -9.265625 C 12.097656 -8.347656 12.328125 -7.253906 12.328125 -5.984375 C 12.328125 -4.710938 12.097656 -3.617188 11.640625 -2.703125 C 11.191406 -1.785156 10.550781 -1.070312 9.71875 -0.5625 C 8.894531 -0.0625 7.914062 0.1875 6.78125 0.1875 C 5.644531 0.1875 4.660156 -0.0625 3.828125 -0.5625 C 3.003906 -1.070312 2.363281 -1.785156 1.90625 -2.703125 C 1.457031 -3.617188 1.234375 -4.710938 1.234375 -5.984375 C 1.234375 -7.253906 1.457031 -8.347656 1.90625 -9.265625 C 2.363281 -10.179688 3.003906 -10.890625 3.828125 -11.390625 C 4.660156 -11.890625 5.644531 -12.140625 6.78125 -12.140625 Z M 6.78125 -10.78125 C 5.957031 -10.78125 5.242188 -10.585938 4.640625 -10.203125 C 4.035156 -9.828125 3.566406 -9.28125 3.234375 -8.5625 C 2.910156 -7.84375 2.75 -6.984375 2.75 -5.984375 C 2.75 -4.984375 2.910156 -4.117188 3.234375 -3.390625 C 3.566406 -2.671875 4.035156 -2.117188 4.640625 -1.734375 C 5.242188 -1.359375 5.957031 -1.171875 6.78125 -1.171875 C 7.613281 -1.171875 8.328125 -1.359375 8.921875 -1.734375 C 9.523438 -2.117188 9.988281 -2.671875 10.3125 -3.390625 C 10.632812 -4.117188 10.796875 -4.984375 10.796875 -5.984375 C 10.796875 -6.984375 10.632812 -7.84375 10.3125 -8.5625 C 9.988281 -9.28125 9.523438 -9.828125 8.921875 -10.203125 C 8.328125 -10.585938 7.613281 -10.78125 6.78125 -10.78125 Z M 6.78125 -10.78125 "/></g></g></g><g fill="#ffffff" fill-opacity="1"><g transform="translate(292.542828, 16.090737)"><g><path d="M 6.484375 -11.96875 C 7.703125 -11.96875 8.679688 -11.648438 9.421875 -11.015625 C 10.160156 -10.390625 10.53125 -9.539062 10.53125 -8.46875 C 10.53125 -7.382812 10.15625 -6.546875 9.40625 -5.953125 C 8.664062 -5.359375 7.6875 -5.0625 6.46875 -5.0625 L 6.34375 -4.96875 L 3.40625 -4.96875 L 3.40625 0 L 1.953125 0 L 1.953125 -11.96875 Z M 6.46875 -6.328125 C 7.320312 -6.328125 7.957031 -6.503906 8.375 -6.859375 C 8.800781 -7.210938 9.015625 -7.75 9.015625 -8.46875 C 9.015625 -9.175781 8.800781 -9.707031 8.375 -10.0625 C 7.957031 -10.425781 7.320312 -10.609375 6.46875 -10.609375 L 3.40625 -10.609375 L 3.40625 -6.328125 Z M 7.296875 -6.03125 L 11.25 0 L 9.53125 0 L 6.09375 -5.234375 Z M 7.296875 -6.03125 "/></g></g></g><g fill="#ffffff" fill-opacity="1"><g transform="translate(302.59592, 16.090737)"><g><path d="M 11.484375 0 L 9.953125 0 L 8.6875 -3.3125 L 3.265625 -3.3125 L 2 0 L 0.46875 0 L 5.125 -11.96875 L 6.84375 -11.96875 Z M 3.78125 -4.671875 L 8.15625 -4.671875 L 5.96875 -10.5625 Z M 3.78125 -4.671875 "/></g></g></g><g fill="#ffffff" fill-opacity="1"><g transform="translate(312.558435, 16.090737)"><g><path d="M 10.375 -11.96875 L 10.375 -10.609375 L 6.203125 -10.609375 L 6.203125 0 L 4.75 0 L 4.75 -10.609375 L 0.578125 -10.609375 L 0.578125 -11.96875 Z M 10.375 -11.96875 "/></g></g></g><g clip-path="url(#6ff2cd27be)"><g fill="#ffffff" fill-opacity="1"><g transform="translate(321.506482, 16.090737)"><g><path d="M 1.953125 0 L 1.953125 -11.96875 L 10.34375 -11.96875 L 10.34375 -10.609375 L 3.40625 -10.609375 L 3.40625 -6.75 L 8.8125 -6.75 L 8.8125 -5.390625 L 3.40625 -5.390625 L 3.40625 -1.359375 L 10.625 -1.359375 L 10.625 0 Z M 1.953125 0 "/></g></g></g></g></g></g><g transform="matrix(1, 0, 0, 1, 183, 271)"><g clip-path="url(#f00e0550b0)"><g clip-path="url(#86bafdbc15)"><g fill="#ff3939" fill-opacity="1"><g transform="translate(2.234704, 0.68467)"><g><path d="M 0 -0.234375 L 6.21875 3.4375 L 0 7.109375 Z M 0 -0.234375 "/></g></g></g><g fill="#ffffff" fill-opacity="1"><g transform="translate(2.442009, 0.68467)"><g><path d="M 0 -0.234375 L 6.21875 3.4375 L 0 7.109375 Z M 0 -0.234375 "/></g></g></g></g></g></g><g transform="matrix(1, 0, 0, 1, 38, 271)"><g clip-path="url(#a38bd57c9e)"><g clip-path="url(#dfccb28033)"><g fill="#ff3939" fill-opacity="1"><g transform="translate(2.209074, 0.68467)"><g><path d="M 0 -0.234375 L 6.21875 3.4375 L 0 7.109375 Z M 0 -0.234375 "/></g></g></g><g fill="#ffffff" fill-opacity="1"><g transform="translate(2.416386, 0.68467)"><g><path d="M 0 -0.234375 L 6.21875 3.4375 L 0 7.109375 Z M 0 -0.234375 "/></g></g></g></g></g></g><g transform="matrix(1, 0, 0, 1, 348, 271)"><g clip-path="url(#21fc363fe2)"><g clip-path="url(#014108e98c)"><g fill="#ff3939" fill-opacity="1"><g transform="translate(2.621456, 0.68467)"><g><path d="M 0 -0.234375 L 6.21875 3.4375 L 0 7.109375 Z M 0 -0.234375 "/></g></g></g></g><g clip-path="url(#f73996b883)"><g fill="#ffffff" fill-opacity="1"><g transform="translate(2.828761, 0.68467)"><g><path d="M 0 -0.234375 L 6.21875 3.4375 L 0 7.109375 Z M 0 -0.234375 "/></g></g></g></g></g></g><g transform="matrix(1, 0, 0, 1, 290, 273)"><g clip-path="url(#3a5f4edb23)"><g clip-path="url(#cefdb35f20)"><g fill="#ff3939" fill-opacity="1"><g transform="translate(0.384224, 4.136147)"><g><path d="M -0.140625 0 L 2 -3.609375 L 4.125 0 Z M -0.140625 0 "/></g></g></g><g fill="#ffffff" fill-opacity="1"><g transform="translate(0.384224, 4.015912)"><g><path d="M -0.140625 0 L 2 -3.609375 L 4.125 0 Z M -0.140625 0 "/></g></g></g></g></g></g><g transform="matrix(1, 0, 0, 1, 331, 273)"><g clip-path="url(#2dc933230a)"><g clip-path="url(#8ac6e65350)"><g fill="#ff3939" fill-opacity="1"><g transform="translate(0.858254, 4.136147)"><g><path d="M -0.140625 0 L 2 -3.609375 L 4.125 0 Z M -0.140625 0 "/></g></g></g><g fill="#ffffff" fill-opacity="1"><g transform="translate(0.858254, 4.015912)"><g><path d="M -0.140625 0 L 2 -3.609375 L 4.125 0 Z M -0.140625 0 "/></g></g></g></g></g></g><g transform="matrix(1, 0, 0, 1, 119, 273)"><g clip-path="url(#656f93897c)"><g clip-path="url(#a1c77cc612)"><g fill="#ff3939" fill-opacity="1"><g transform="translate(0.687516, 4.136147)"><g><path d="M -0.140625 0 L 2 -3.609375 L 4.125 0 Z M -0.140625 0 "/></g></g></g><g fill="#ffffff" fill-opacity="1"><g transform="translate(0.687516, 4.015912)"><g><path d="M -0.140625 0 L 2 -3.609375 L 4.125 0 Z M -0.140625 0 "/></g></g></g></g></g></g></svg>