<svg xmlns="http://www.w3.org/2000/svg" xmlns:xlink="http://www.w3.org/1999/xlink" width="500" zoomAndPan="magnify" viewBox="0 0 375 374.999991" height="500" preserveAspectRatio="xMidYMid meet" version="1.0"><defs><g/><clipPath id="4e90a48eb6"><path d="M 98.597656 147.683594 L 117.367188 147.683594 L 117.367188 166.816406 L 98.597656 166.816406 Z M 98.597656 147.683594 " clip-rule="nonzero"/></clipPath><clipPath id="964867dbc1"><path d="M 107.984375 147.683594 C 102.800781 147.683594 98.597656 151.957031 98.597656 157.234375 C 98.597656 162.507812 102.800781 166.785156 107.984375 166.785156 C 113.167969 166.785156 117.367188 162.507812 117.367188 157.234375 C 117.367188 151.957031 113.167969 147.683594 107.984375 147.683594 Z M 107.984375 147.683594 " clip-rule="nonzero"/></clipPath><clipPath id="63e41dd894"><path d="M 0.597656 0.683594 L 19.367188 0.683594 L 19.367188 19.800781 L 0.597656 19.800781 Z M 0.597656 0.683594 " clip-rule="nonzero"/></clipPath><clipPath id="fe6e02962e"><path d="M 9.984375 0.683594 C 4.800781 0.683594 0.597656 4.957031 0.597656 10.234375 C 0.597656 15.507812 4.800781 19.785156 9.984375 19.785156 C 15.167969 19.785156 19.367188 15.507812 19.367188 10.234375 C 19.367188 4.957031 15.167969 0.683594 9.984375 0.683594 Z M 9.984375 0.683594 " clip-rule="nonzero"/></clipPath><clipPath id="682106dbdd"><rect x="0" width="20" y="0" height="20"/></clipPath><clipPath id="c9c71f90f6"><rect x="0" width="226" y="0" height="266"/></clipPath><clipPath id="ce59d95350"><rect x="0" width="84" y="0" height="267"/></clipPath><clipPath id="73e4feb15d"><path d="M 323 4 L 332.601562 4 L 332.601562 17 L 323 17 Z M 323 4 " clip-rule="nonzero"/></clipPath><clipPath id="51802777c3"><rect x="0" width="333" y="0" height="22"/></clipPath><clipPath id="b538394302"><path d="M 2 0.480469 L 8.761719 0.480469 L 8.761719 8.160156 L 2 8.160156 Z M 2 0.480469 " clip-rule="nonzero"/></clipPath><clipPath id="488e067291"><rect x="0" width="9" y="0" height="9"/></clipPath><clipPath id="11160620a4"><path d="M 2 0.480469 L 8.800781 0.480469 L 8.800781 8.160156 L 2 8.160156 Z M 2 0.480469 " clip-rule="nonzero"/></clipPath><clipPath id="3ca0861ddb"><rect x="0" width="9" y="0" height="9"/></clipPath><clipPath id="1c9db9782c"><path d="M 2 0.480469 L 9 0.480469 L 9 8.160156 L 2 8.160156 Z M 2 0.480469 " clip-rule="nonzero"/></clipPath><clipPath id="9a2d1ad2c3"><path d="M 2 0.480469 L 9.121094 0.480469 L 9.121094 8.160156 L 2 8.160156 Z M 2 0.480469 " clip-rule="nonzero"/></clipPath><clipPath id="b0edb53c62"><rect x="0" width="10" y="0" height="9"/></clipPath><clipPath id="df7d95b099"><path d="M 0.441406 0.398438 L 5.71875 0.398438 L 5.71875 5 L 0.441406 5 Z M 0.441406 0.398438 " clip-rule="nonzero"/></clipPath><clipPath id="48aef088b5"><rect x="0" width="6" y="0" height="7"/></clipPath><clipPath id="fc5d60b9ab"><path d="M 1 0.398438 L 6.238281 0.398438 L 6.238281 5 L 1 5 Z M 1 0.398438 " clip-rule="nonzero"/></clipPath><clipPath id="3135f20e51"><rect x="0" width="7" y="0" height="7"/></clipPath><clipPath id="082316e8d0"><path d="M 0.800781 0.398438 L 6 0.398438 L 6 5 L 0.800781 5 Z M 0.800781 0.398438 " clip-rule="nonzero"/></clipPath><clipPath id="940e121b78"><rect x="0" width="7" y="0" height="7"/></clipPath></defs><g fill="#ffffff" fill-opacity="1"><g transform="translate(68.856833, 247.757547)"><g><path d="M 89.511719 -6.605469 C 89.925781 -5.265625 90.570312 -4.304688 91.445312 -3.71875 C 92.359375 -3.109375 94.191406 -2.804688 96.949219 -2.804688 L 98.246094 -2.804688 L 98.246094 1.484375 L 72.265625 1.484375 L 72.265625 -2.804688 L 73.5625 -2.804688 C 75.882812 -2.804688 77.429688 -2.984375 78.199219 -3.34375 C 78.644531 -3.550781 78.867188 -4.007812 78.867188 -4.714844 C 78.867188 -5.03125 78.839844 -5.378906 78.785156 -5.757812 C 78.730469 -6.144531 78.550781 -6.875 78.253906 -7.953125 C 77.9375 -9.089844 77.496094 -10.730469 76.929688 -12.871094 C 76.363281 -15 75.550781 -17.949219 74.480469 -21.714844 L 70.425781 -36.050781 C 68.789062 -41.839844 66.839844 -48.949219 64.574219 -57.378906 L 65.828125 -57.71875 L 66.332031 -56.523438 C 63.335938 -55.253906 60.652344 -52.515625 58.28125 -48.308594 C 55.792969 -43.898438 52.992188 -37.757812 49.867188 -29.890625 C 47.71875 -24.578125 45.695312 -19.929688 43.796875 -15.945312 C 41.878906 -11.917969 39.953125 -8.550781 38.023438 -5.847656 C 36.027344 -3.054688 33.847656 -0.980469 31.480469 0.371094 C 29.082031 1.742188 26.382812 2.429688 23.386719 2.429688 C 20.179688 2.429688 17.328125 1.855469 14.832031 0.707031 C 12.332031 -0.441406 10.296875 -1.9375 8.726562 -3.78125 C 7.167969 -5.613281 6.015625 -7.710938 5.269531 -10.078125 C 4.53125 -12.429688 4.230469 -14.816406 4.363281 -17.234375 L 5.660156 -17.164062 L 4.363281 -17.164062 C 4.363281 -17.996094 4.460938 -18.980469 4.664062 -20.125 C 4.859375 -21.226562 5.335938 -23.269531 6.101562 -26.253906 C 6.855469 -29.214844 7.957031 -33.371094 9.40625 -38.722656 C 10.851562 -44.070312 12.898438 -51.429688 15.539062 -60.804688 L 25.441406 -95.699219 L 39.871094 -146.53125 L 41.117188 -146.179688 L 39.992188 -145.535156 C 39.613281 -146.195312 38.941406 -146.78125 37.96875 -147.292969 C 36.960938 -147.824219 35.246094 -148.089844 32.820312 -148.089844 L 31.523438 -148.089844 L 31.523438 -152.378906 L 57.695312 -152.378906 L 57.695312 -148.089844 L 56.398438 -148.089844 C 54.203125 -148.089844 52.785156 -147.816406 52.148438 -147.269531 C 51.570312 -146.773438 51.28125 -146.03125 51.28125 -145.046875 C 51.28125 -144.742188 51.304688 -144.433594 51.355469 -144.128906 C 51.414062 -143.796875 51.75 -142.519531 52.363281 -140.300781 L 55.476562 -128.980469 L 61.890625 -105.878906 L 72.828125 -66.550781 L 89.523438 -6.570312 L 88.273438 -6.222656 Z M 87.035156 -5.84375 L 87.027344 -5.859375 L 70.332031 -65.855469 L 59.390625 -105.183594 L 52.976562 -128.292969 L 49.867188 -139.605469 C 49.226562 -141.914062 48.871094 -143.28125 48.800781 -143.703125 C 48.722656 -144.148438 48.6875 -144.597656 48.6875 -145.046875 C 48.6875 -146.828125 49.277344 -148.226562 50.460938 -149.238281 C 51.582031 -150.199219 53.5625 -150.683594 56.398438 -150.683594 L 56.398438 -149.386719 L 55.101562 -149.386719 L 55.101562 -151.082031 L 56.398438 -151.082031 L 56.398438 -149.785156 L 32.820312 -149.785156 L 32.820312 -151.082031 L 34.117188 -151.082031 L 34.117188 -149.386719 L 32.820312 -149.386719 L 32.820312 -150.683594 C 35.671875 -150.683594 37.792969 -150.316406 39.175781 -149.589844 C 40.59375 -148.84375 41.617188 -147.921875 42.246094 -146.820312 L 42.515625 -146.347656 L 27.9375 -94.992188 L 18.035156 -60.101562 C 15.394531 -50.738281 13.355469 -43.386719 11.910156 -38.046875 C 10.464844 -32.707031 9.367188 -28.5625 8.613281 -25.613281 C 7.867188 -22.691406 7.402344 -20.710938 7.21875 -19.671875 C 7.042969 -18.679688 6.957031 -17.84375 6.957031 -17.164062 L 6.957031 -17.128906 L 6.953125 -17.09375 C 6.835938 -14.984375 7.101562 -12.90625 7.746094 -10.855469 C 8.382812 -8.824219 9.367188 -7.027344 10.699219 -5.460938 C 12.023438 -3.910156 13.761719 -2.640625 15.914062 -1.648438 C 18.066406 -0.660156 20.558594 -0.164062 23.386719 -0.164062 C 25.925781 -0.164062 28.195312 -0.738281 30.195312 -1.878906 C 32.230469 -3.042969 34.136719 -4.867188 35.914062 -7.355469 C 37.753906 -9.933594 39.601562 -13.167969 41.457031 -17.0625 C 43.332031 -21 45.332031 -25.59375 47.457031 -30.847656 C 50.625 -38.820312 53.476562 -45.066406 56.019531 -49.582031 C 58.679688 -54.304688 61.78125 -57.414062 65.320312 -58.910156 L 66.695312 -59.492188 L 67.078125 -58.054688 C 69.34375 -49.632812 71.289062 -42.535156 72.921875 -36.757812 L 76.976562 -22.421875 C 78.046875 -18.640625 78.867188 -15.679688 79.433594 -13.535156 C 80 -11.402344 80.4375 -9.773438 80.75 -8.644531 C 81.082031 -7.460938 81.28125 -6.621094 81.351562 -6.125 C 81.421875 -5.625 81.460938 -5.152344 81.460938 -4.714844 C 81.460938 -2.90625 80.738281 -1.667969 79.296875 -0.992188 C 78.179688 -0.472656 76.265625 -0.210938 73.5625 -0.210938 L 73.5625 -1.507812 L 74.859375 -1.507812 L 74.859375 0.1875 L 73.5625 0.1875 L 73.5625 -1.109375 L 96.949219 -1.109375 L 96.949219 0.1875 L 95.652344 0.1875 L 95.652344 -1.507812 L 96.949219 -1.507812 L 96.949219 -0.210938 C 93.667969 -0.210938 91.355469 -0.660156 90.003906 -1.5625 C 88.617188 -2.488281 87.628906 -3.914062 87.035156 -5.84375 Z M 45.761719 -31.605469 C 48.675781 -38.824219 51.527344 -44.96875 54.316406 -50.042969 C 57.226562 -55.332031 60.703125 -58.851562 64.746094 -60.605469 L 65.261719 -59.414062 L 64.011719 -59.066406 L 40.8125 -142.816406 L 42.0625 -143.160156 L 43.308594 -142.804688 L 39.535156 -129.601562 L 33.972656 -109.894531 L 27.464844 -86.695312 L 20.863281 -63.214844 L 15.015625 -42.464844 L 10.867188 -27.566406 C 10.15625 -24.957031 9.917969 -22.410156 10.15625 -19.929688 C 10.386719 -17.484375 11.082031 -15.308594 12.238281 -13.402344 C 13.375 -11.527344 15.039062 -9.984375 17.226562 -8.773438 C 19.417969 -7.5625 22.101562 -6.957031 25.273438 -6.957031 C 26.191406 -6.957031 27.359375 -7.101562 28.78125 -7.398438 C 30.074219 -7.667969 31.542969 -8.515625 33.199219 -9.941406 C 34.921875 -11.425781 36.816406 -13.839844 38.882812 -17.1875 C 40.980469 -20.578125 43.273438 -25.386719 45.761719 -31.601562 Z M 48.167969 -30.640625 C 45.628906 -24.285156 43.265625 -19.34375 41.089844 -15.820312 C 38.882812 -12.25 36.816406 -9.636719 34.890625 -7.976562 C 32.898438 -6.257812 31.039062 -5.21875 29.3125 -4.859375 C 27.714844 -4.527344 26.371094 -4.363281 25.273438 -4.363281 C 21.65625 -4.363281 18.554688 -5.074219 15.972656 -6.503906 C 13.378906 -7.9375 11.394531 -9.789062 10.019531 -12.058594 C 8.660156 -14.304688 7.84375 -16.84375 7.574219 -19.683594 C 7.308594 -22.480469 7.574219 -25.339844 8.371094 -28.261719 L 12.519531 -43.167969 L 18.367188 -63.914062 L 24.96875 -87.398438 L 31.476562 -110.597656 L 37.042969 -130.3125 L 42.082031 -147.949219 L 66.8125 -58.671875 L 65.777344 -58.226562 C 62.277344 -56.707031 59.214844 -53.5625 56.589844 -48.792969 C 53.847656 -43.808594 51.042969 -37.757812 48.167969 -30.636719 Z M 48.167969 -30.640625 "/></g></g></g><g fill="#ff3939" fill-opacity="1"><g transform="translate(68.856833, 247.757547)"><g><path d="M 88.28125 -6.21875 C 88.78125 -4.582031 89.59375 -3.390625 90.71875 -2.640625 C 91.851562 -1.890625 93.929688 -1.515625 96.953125 -1.515625 L 96.953125 0.1875 L 73.5625 0.1875 L 73.5625 -1.515625 C 76.082031 -1.515625 77.8125 -1.734375 78.75 -2.171875 C 79.695312 -2.609375 80.171875 -3.457031 80.171875 -4.71875 C 80.171875 -5.09375 80.140625 -5.5 80.078125 -5.9375 C 80.015625 -6.382812 79.820312 -7.171875 79.5 -8.296875 C 79.1875 -9.429688 78.75 -11.066406 78.1875 -13.203125 C 77.625 -15.335938 76.804688 -18.289062 75.734375 -22.0625 C 74.660156 -25.84375 73.304688 -30.625 71.671875 -36.40625 C 70.035156 -42.1875 68.085938 -49.289062 65.828125 -57.71875 C 62.554688 -56.332031 59.660156 -53.40625 57.140625 -48.9375 C 54.628906 -44.476562 51.804688 -38.289062 48.671875 -30.375 C 46.523438 -25.09375 44.507812 -20.46875 42.625 -16.5 C 40.738281 -12.539062 38.851562 -9.238281 36.96875 -6.59375 C 35.082031 -3.957031 33.039062 -2.007812 30.84375 -0.75 C 28.644531 0.5 26.160156 1.125 23.390625 1.125 C 20.367188 1.125 17.695312 0.59375 15.375 -0.46875 C 13.050781 -1.539062 11.164062 -2.925781 9.71875 -4.625 C 8.269531 -6.320312 7.195312 -8.269531 6.5 -10.46875 C 5.8125 -12.664062 5.53125 -14.898438 5.65625 -17.171875 C 5.65625 -17.921875 5.75 -18.828125 5.9375 -19.890625 C 6.125 -20.960938 6.59375 -22.976562 7.34375 -25.9375 C 8.101562 -28.894531 9.207031 -33.046875 10.65625 -38.390625 C 12.101562 -43.734375 14.144531 -51.085938 16.78125 -60.453125 C 19.425781 -69.816406 22.726562 -81.445312 26.6875 -95.34375 C 30.644531 -109.238281 35.457031 -126.1875 41.125 -146.1875 C 40.613281 -147.0625 39.757812 -147.8125 38.5625 -148.4375 C 37.375 -149.070312 35.460938 -149.390625 32.828125 -149.390625 L 32.828125 -151.09375 L 56.40625 -151.09375 L 56.40625 -149.390625 C 53.882812 -149.390625 52.179688 -149.007812 51.296875 -148.25 C 50.421875 -147.5 49.984375 -146.429688 49.984375 -145.046875 C 49.984375 -144.671875 50.015625 -144.296875 50.078125 -143.921875 C 50.140625 -143.546875 50.484375 -142.222656 51.109375 -139.953125 C 51.742188 -137.691406 52.785156 -133.921875 54.234375 -128.640625 C 55.679688 -123.359375 57.816406 -115.65625 60.640625 -105.53125 C 63.472656 -95.40625 67.117188 -82.296875 71.578125 -66.203125 C 76.046875 -50.109375 81.613281 -30.113281 88.28125 -6.21875 Z M 46.96875 -31.125 C 49.863281 -38.289062 52.691406 -44.390625 55.453125 -49.421875 C 58.222656 -54.453125 61.492188 -57.785156 65.265625 -59.421875 L 42.0625 -143.171875 C 41.1875 -140.148438 39.929688 -135.742188 38.296875 -129.953125 C 36.660156 -124.171875 34.800781 -117.601562 32.71875 -110.25 C 30.644531 -102.894531 28.476562 -95.160156 26.21875 -87.046875 C 23.957031 -78.941406 21.753906 -71.113281 19.609375 -63.5625 C 17.472656 -56.019531 15.523438 -49.101562 13.765625 -42.8125 C 12.003906 -36.53125 10.625 -31.566406 9.625 -27.921875 C 8.863281 -25.148438 8.609375 -22.441406 8.859375 -19.796875 C 9.117188 -17.160156 9.875 -14.804688 11.125 -12.734375 C 12.382812 -10.660156 14.207031 -8.960938 16.59375 -7.640625 C 18.988281 -6.316406 21.882812 -5.65625 25.28125 -5.65625 C 26.28125 -5.65625 27.535156 -5.8125 29.046875 -6.125 C 30.554688 -6.445312 32.222656 -7.390625 34.046875 -8.953125 C 35.867188 -10.523438 37.847656 -13.039062 39.984375 -16.5 C 42.117188 -19.957031 44.445312 -24.832031 46.96875 -31.125 Z M 46.96875 -31.125 "/></g></g></g><g clip-path="url(#4e90a48eb6)"><g clip-path="url(#964867dbc1)"><g transform="matrix(1, 0, 0, 1, 98, 147)"><g clip-path="url(#682106dbdd)"><g clip-path="url(#63e41dd894)"><g clip-path="url(#fe6e02962e)"><path fill="#ff3939" d="M 0.597656 0.683594 L 19.367188 0.683594 L 19.367188 19.816406 L 0.597656 19.816406 Z M 0.597656 0.683594 " fill-opacity="1" fill-rule="nonzero"/></g></g></g></g></g></g><path fill="#2563eb" d="M 96.175781 170.492188 L 122.078125 170.492188 C 124.859375 170.492188 127.113281 172.746094 127.113281 175.527344 L 127.113281 185.59375 C 127.113281 188.375 124.859375 190.628906 122.078125 190.628906 L 96.175781 190.628906 C 93.398438 190.628906 91.144531 188.375 91.144531 185.59375 L 91.144531 175.527344 C 91.144531 172.746094 93.398438 170.492188 96.175781 170.492188 Z M 96.175781 170.492188 " fill-opacity="1" fill-rule="nonzero"/><g fill="#ffffff" fill-opacity="1"><g transform="translate(96.278906, 184.31051)"><g><path d="M 5.125 -8.46875 C 6.175781 -8.46875 6.988281 -8.222656 7.5625 -7.734375 C 8.132812 -7.253906 8.421875 -6.613281 8.421875 -5.8125 C 8.421875 -4.914062 8.140625 -4.234375 7.578125 -3.765625 C 7.015625 -3.304688 6.203125 -3.078125 5.140625 -3.078125 L 4.890625 -2.9375 L 3.34375 -2.9375 L 3.34375 0 L 0.78125 0 L 0.78125 -8.46875 Z M 4.6875 -4.71875 C 5.0625 -4.71875 5.335938 -4.785156 5.515625 -4.921875 C 5.703125 -5.066406 5.796875 -5.300781 5.796875 -5.625 C 5.796875 -5.957031 5.703125 -6.195312 5.515625 -6.34375 C 5.335938 -6.488281 5.0625 -6.5625 4.6875 -6.5625 L 3.34375 -6.5625 L 3.34375 -4.71875 Z M 6.25 -4.171875 L 8.921875 0 L 6.0625 0 L 3.984375 -3.703125 Z M 6.25 -4.171875 "/></g></g></g><g fill="#ffffff" fill-opacity="1"><g transform="translate(105.235669, 184.31051)"><g><path d="M 0.78125 0 L 0.78125 -8.46875 L 7.609375 -8.46875 L 7.609375 -6.5 L 3.40625 -6.5 L 3.40625 -5.125 L 6.765625 -5.125 L 6.765625 -3.3125 L 3.40625 -3.3125 L 3.40625 -1.96875 L 7.78125 -1.96875 L 7.78125 0 Z M 0.78125 0 "/></g></g></g><g fill="#ffffff" fill-opacity="1"><g transform="translate(113.2557, 184.31051)"><g><path d="M 8.515625 -2.515625 C 8.359375 -1.890625 8.097656 -1.378906 7.734375 -0.984375 C 7.378906 -0.585938 6.941406 -0.300781 6.421875 -0.125 C 5.898438 0.0390625 5.328125 0.125 4.703125 0.125 C 3.835938 0.125 3.082031 -0.046875 2.4375 -0.390625 C 1.800781 -0.734375 1.3125 -1.226562 0.96875 -1.875 C 0.632812 -2.53125 0.46875 -3.316406 0.46875 -4.234375 C 0.46875 -5.148438 0.632812 -5.929688 0.96875 -6.578125 C 1.3125 -7.234375 1.800781 -7.734375 2.4375 -8.078125 C 3.082031 -8.421875 3.832031 -8.59375 4.6875 -8.59375 C 5.3125 -8.59375 5.878906 -8.503906 6.390625 -8.328125 C 6.910156 -8.160156 7.347656 -7.894531 7.703125 -7.53125 C 8.066406 -7.175781 8.3125 -6.710938 8.4375 -6.140625 L 6.171875 -5.234375 C 6.078125 -5.785156 5.910156 -6.148438 5.671875 -6.328125 C 5.441406 -6.503906 5.140625 -6.59375 4.765625 -6.59375 C 4.429688 -6.59375 4.140625 -6.503906 3.890625 -6.328125 C 3.648438 -6.148438 3.46875 -5.890625 3.34375 -5.546875 C 3.21875 -5.203125 3.15625 -4.765625 3.15625 -4.234375 C 3.15625 -3.710938 3.210938 -3.273438 3.328125 -2.921875 C 3.441406 -2.578125 3.617188 -2.316406 3.859375 -2.140625 C 4.109375 -1.960938 4.429688 -1.875 4.828125 -1.875 C 5.171875 -1.875 5.460938 -1.972656 5.703125 -2.171875 C 5.941406 -2.378906 6.101562 -2.703125 6.1875 -3.140625 Z M 8.515625 -2.515625 "/></g></g></g><g transform="matrix(1, 0, 0, 1, 134, 54)"><g clip-path="url(#c9c71f90f6)"><g fill="#2563eb" fill-opacity="1"><g transform="translate(0.943189, 206.30275)"><g><path d="M 117.953125 -38.390625 L 173.703125 -165.125 L 221.75 -165.125 L 221.75 -156.984375 C 217.164062 -156.835938 213.476562 -156.265625 210.6875 -155.265625 C 207.90625 -154.265625 205.765625 -152.582031 204.265625 -150.21875 C 202.765625 -147.863281 201.765625 -144.613281 201.265625 -140.46875 C 200.765625 -136.320312 200.515625 -131.03125 200.515625 -124.59375 L 200.515625 -40.53125 C 200.515625 -33.382812 200.800781 -27.738281 201.375 -23.59375 C 201.945312 -19.445312 203.050781 -16.226562 204.6875 -13.9375 C 206.332031 -11.65625 208.691406 -10.15625 211.765625 -9.4375 C 214.847656 -8.71875 218.890625 -8.289062 223.890625 -8.15625 L 223.890625 0 L 154.40625 0 L 154.40625 -8.15625 C 159.40625 -8.289062 163.441406 -8.75 166.515625 -9.53125 C 169.597656 -10.320312 171.992188 -11.789062 173.703125 -13.9375 C 175.421875 -16.082031 176.566406 -19.117188 177.140625 -23.046875 C 177.710938 -26.984375 178 -32.3125 178 -39.03125 L 178 -138.53125 L 175.859375 -138.53125 L 113.234375 2.140625 L 108.515625 2.140625 L 46.96875 -138.53125 L 46.109375 -138.53125 L 46.109375 -40.53125 C 46.109375 -33.382812 46.394531 -27.738281 46.96875 -23.59375 C 47.539062 -19.445312 48.644531 -16.226562 50.28125 -13.9375 C 51.925781 -11.65625 54.285156 -10.15625 57.359375 -9.4375 C 60.441406 -8.71875 64.484375 -8.289062 69.484375 -8.15625 L 69.484375 0 L 9.65625 0 L 9.65625 -8.15625 C 14.65625 -8.289062 18.691406 -8.75 21.765625 -9.53125 C 24.835938 -10.320312 27.234375 -11.789062 28.953125 -13.9375 C 30.671875 -16.082031 31.8125 -19.117188 32.375 -23.046875 C 32.945312 -26.984375 33.234375 -32.3125 33.234375 -39.03125 L 33.234375 -126.09375 C 33.234375 -132.101562 32.984375 -137.070312 32.484375 -141 C 31.984375 -144.9375 30.984375 -148.046875 29.484375 -150.328125 C 27.984375 -152.617188 25.800781 -154.226562 22.9375 -155.15625 C 20.082031 -156.082031 16.367188 -156.691406 11.796875 -156.984375 L 11.796875 -165.125 L 63.046875 -165.125 L 117.09375 -38.390625 Z M 117.953125 -38.390625 "/></g></g></g></g></g><g transform="matrix(1, 0, 0, 1, 12, 53)"><g clip-path="url(#ce59d95350)"><g fill="#2563eb" fill-opacity="1"><g transform="translate(2.394886, 207.115092)"><g><path d="M 55.953125 -40.671875 C 55.953125 -33.492188 56.238281 -27.828125 56.8125 -23.671875 C 57.382812 -19.515625 58.492188 -16.285156 60.140625 -13.984375 C 61.796875 -11.691406 64.164062 -10.1875 67.25 -9.46875 C 70.332031 -8.75 74.382812 -8.316406 79.40625 -8.171875 L 79.40625 0 L 9.6875 0 L 9.6875 -8.171875 C 14.707031 -8.316406 18.757812 -8.785156 21.84375 -9.578125 C 24.925781 -10.367188 27.328125 -11.835938 29.046875 -13.984375 C 30.765625 -16.140625 31.910156 -19.1875 32.484375 -23.125 C 33.066406 -27.070312 33.359375 -32.421875 33.359375 -39.171875 L 33.359375 -126.53125 C 33.359375 -132.550781 33.101562 -137.535156 32.59375 -141.484375 C 32.09375 -145.429688 31.085938 -148.550781 29.578125 -150.84375 C 28.078125 -153.144531 25.890625 -154.757812 23.015625 -155.6875 C 20.148438 -156.625 16.421875 -157.234375 11.828125 -157.515625 L 11.828125 -165.6875 L 77.25 -165.6875 L 77.25 -157.515625 C 72.65625 -157.367188 68.957031 -156.796875 66.15625 -155.796875 C 63.363281 -154.796875 61.210938 -153.109375 59.703125 -150.734375 C 58.203125 -148.367188 57.203125 -145.101562 56.703125 -140.9375 C 56.203125 -136.78125 55.953125 -131.476562 55.953125 -125.03125 Z M 55.953125 -40.671875 "/></g></g></g></g></g><g transform="matrix(1, 0, 0, 1, 25, 264)"><g clip-path="url(#51802777c3)"><g fill="#ffffff" fill-opacity="1"><g transform="translate(0.326565, 16.090737)"><g><path d="M 6.484375 -11.96875 C 7.703125 -11.96875 8.679688 -11.648438 9.421875 -11.015625 C 10.160156 -10.390625 10.53125 -9.539062 10.53125 -8.46875 C 10.53125 -7.382812 10.15625 -6.546875 9.40625 -5.953125 C 8.664062 -5.359375 7.6875 -5.0625 6.46875 -5.0625 L 6.34375 -4.96875 L 3.40625 -4.96875 L 3.40625 0 L 1.953125 0 L 1.953125 -11.96875 Z M 6.46875 -6.328125 C 7.320312 -6.328125 7.957031 -6.503906 8.375 -6.859375 C 8.800781 -7.210938 9.015625 -7.75 9.015625 -8.46875 C 9.015625 -9.175781 8.800781 -9.707031 8.375 -10.0625 C 7.957031 -10.425781 7.320312 -10.609375 6.46875 -10.609375 L 3.40625 -10.609375 L 3.40625 -6.328125 Z M 7.296875 -6.03125 L 11.25 0 L 9.53125 0 L 6.09375 -5.234375 Z M 7.296875 -6.03125 "/></g></g></g><g fill="#ffffff" fill-opacity="1"><g transform="translate(10.379657, 16.090737)"><g><path d="M 1.953125 0 L 1.953125 -11.96875 L 10.34375 -11.96875 L 10.34375 -10.609375 L 3.40625 -10.609375 L 3.40625 -6.75 L 8.8125 -6.75 L 8.8125 -5.390625 L 3.40625 -5.390625 L 3.40625 -1.359375 L 10.625 -1.359375 L 10.625 0 Z M 1.953125 0 "/></g></g></g><g fill="#ffffff" fill-opacity="1"><g transform="translate(19.943635, 16.090737)"><g><path d="M 11.59375 -3.0625 C 11.34375 -2.382812 10.984375 -1.800781 10.515625 -1.3125 C 10.046875 -0.820312 9.492188 -0.445312 8.859375 -0.1875 C 8.222656 0.0625 7.53125 0.1875 6.78125 0.1875 C 5.644531 0.1875 4.660156 -0.0625 3.828125 -0.5625 C 3.003906 -1.070312 2.363281 -1.785156 1.90625 -2.703125 C 1.457031 -3.617188 1.234375 -4.710938 1.234375 -5.984375 C 1.234375 -7.253906 1.457031 -8.347656 1.90625 -9.265625 C 2.363281 -10.179688 3.003906 -10.890625 3.828125 -11.390625 C 4.660156 -11.890625 5.632812 -12.140625 6.75 -12.140625 C 7.519531 -12.140625 8.207031 -12.035156 8.8125 -11.828125 C 9.414062 -11.617188 9.929688 -11.304688 10.359375 -10.890625 C 10.785156 -10.472656 11.125 -9.960938 11.375 -9.359375 L 9.953125 -8.6875 C 9.679688 -9.375 9.296875 -9.894531 8.796875 -10.25 C 8.296875 -10.601562 7.644531 -10.78125 6.84375 -10.78125 C 6.039062 -10.78125 5.328125 -10.585938 4.703125 -10.203125 C 4.085938 -9.828125 3.609375 -9.28125 3.265625 -8.5625 C 2.921875 -7.851562 2.75 -6.992188 2.75 -5.984375 C 2.75 -4.984375 2.910156 -4.117188 3.234375 -3.390625 C 3.566406 -2.671875 4.035156 -2.117188 4.640625 -1.734375 C 5.242188 -1.359375 5.957031 -1.171875 6.78125 -1.171875 C 7.570312 -1.171875 8.265625 -1.375 8.859375 -1.78125 C 9.453125 -2.1875 9.882812 -2.796875 10.15625 -3.609375 Z M 11.59375 -3.0625 "/></g></g></g><g fill="#ffffff" fill-opacity="1"><g transform="translate(30.377155, 16.090737)"><g><path d="M 6.78125 -12.140625 C 7.914062 -12.140625 8.894531 -11.890625 9.71875 -11.390625 C 10.550781 -10.890625 11.191406 -10.179688 11.640625 -9.265625 C 12.097656 -8.347656 12.328125 -7.253906 12.328125 -5.984375 C 12.328125 -4.710938 12.097656 -3.617188 11.640625 -2.703125 C 11.191406 -1.785156 10.550781 -1.070312 9.71875 -0.5625 C 8.894531 -0.0625 7.914062 0.1875 6.78125 0.1875 C 5.644531 0.1875 4.660156 -0.0625 3.828125 -0.5625 C 3.003906 -1.070312 2.363281 -1.785156 1.90625 -2.703125 C 1.457031 -3.617188 1.234375 -4.710938 1.234375 -5.984375 C 1.234375 -7.253906 1.457031 -8.347656 1.90625 -9.265625 C 2.363281 -10.179688 3.003906 -10.890625 3.828125 -11.390625 C 4.660156 -11.890625 5.644531 -12.140625 6.78125 -12.140625 Z M 6.78125 -10.78125 C 5.957031 -10.78125 5.242188 -10.585938 4.640625 -10.203125 C 4.035156 -9.828125 3.566406 -9.28125 3.234375 -8.5625 C 2.910156 -7.84375 2.75 -6.984375 2.75 -5.984375 C 2.75 -4.984375 2.910156 -4.117188 3.234375 -3.390625 C 3.566406 -2.671875 4.035156 -2.117188 4.640625 -1.734375 C 5.242188 -1.359375 5.957031 -1.171875 6.78125 -1.171875 C 7.613281 -1.171875 8.328125 -1.359375 8.921875 -1.734375 C 9.523438 -2.117188 9.988281 -2.671875 10.3125 -3.390625 C 10.632812 -4.117188 10.796875 -4.984375 10.796875 -5.984375 C 10.796875 -6.984375 10.632812 -7.84375 10.3125 -8.5625 C 9.988281 -9.28125 9.523438 -9.828125 8.921875 -10.203125 C 8.328125 -10.585938 7.613281 -10.78125 6.78125 -10.78125 Z M 6.78125 -10.78125 "/></g></g></g><g fill="#ffffff" fill-opacity="1"><g transform="translate(41.933838, 16.090737)"><g><path d="M 6.484375 -11.96875 C 7.703125 -11.96875 8.679688 -11.648438 9.421875 -11.015625 C 10.160156 -10.390625 10.53125 -9.539062 10.53125 -8.46875 C 10.53125 -7.382812 10.15625 -6.546875 9.40625 -5.953125 C 8.664062 -5.359375 7.6875 -5.0625 6.46875 -5.0625 L 6.34375 -4.96875 L 3.40625 -4.96875 L 3.40625 0 L 1.953125 0 L 1.953125 -11.96875 Z M 6.46875 -6.328125 C 7.320312 -6.328125 7.957031 -6.503906 8.375 -6.859375 C 8.800781 -7.210938 9.015625 -7.75 9.015625 -8.46875 C 9.015625 -9.175781 8.800781 -9.707031 8.375 -10.0625 C 7.957031 -10.425781 7.320312 -10.609375 6.46875 -10.609375 L 3.40625 -10.609375 L 3.40625 -6.328125 Z M 7.296875 -6.03125 L 11.25 0 L 9.53125 0 L 6.09375 -5.234375 Z M 7.296875 -6.03125 "/></g></g></g><g fill="#ffffff" fill-opacity="1"><g transform="translate(51.98693, 16.090737)"><g><path d="M 5.8125 -11.96875 C 7.6875 -11.96875 9.15625 -11.445312 10.21875 -10.40625 C 11.289062 -9.375 11.828125 -7.898438 11.828125 -5.984375 C 11.828125 -4.054688 11.289062 -2.578125 10.21875 -1.546875 C 9.15625 -0.515625 7.6875 0 5.8125 0 L 1.953125 0 L 1.953125 -11.96875 Z M 5.96875 -1.359375 C 7.332031 -1.359375 8.394531 -1.765625 9.15625 -2.578125 C 9.925781 -3.398438 10.3125 -4.535156 10.3125 -5.984375 C 10.3125 -7.429688 9.925781 -8.5625 9.15625 -9.375 C 8.394531 -10.195312 7.332031 -10.609375 5.96875 -10.609375 L 3.40625 -10.609375 L 3.40625 -1.359375 Z M 5.96875 -1.359375 "/></g></g></g><g fill="#ffffff" fill-opacity="1"><g transform="translate(63.061185, 16.090737)"><g/></g></g><g fill="#ffffff" fill-opacity="1"><g transform="translate(67.244858, 16.090737)"><g/></g></g><g fill="#ffffff" fill-opacity="1"><g transform="translate(71.43781, 16.090737)"><g><path d="M 10.375 -11.96875 L 10.375 -10.609375 L 6.203125 -10.609375 L 6.203125 0 L 4.75 0 L 4.75 -10.609375 L 0.578125 -10.609375 L 0.578125 -11.96875 Z M 10.375 -11.96875 "/></g></g></g><g fill="#ffffff" fill-opacity="1"><g transform="translate(80.385858, 16.090737)"><g><path d="M 6.484375 -11.96875 C 7.703125 -11.96875 8.679688 -11.648438 9.421875 -11.015625 C 10.160156 -10.390625 10.53125 -9.539062 10.53125 -8.46875 C 10.53125 -7.382812 10.15625 -6.546875 9.40625 -5.953125 C 8.664062 -5.359375 7.6875 -5.0625 6.46875 -5.0625 L 6.34375 -4.96875 L 3.40625 -4.96875 L 3.40625 0 L 1.953125 0 L 1.953125 -11.96875 Z M 6.46875 -6.328125 C 7.320312 -6.328125 7.957031 -6.503906 8.375 -6.859375 C 8.800781 -7.210938 9.015625 -7.75 9.015625 -8.46875 C 9.015625 -9.175781 8.800781 -9.707031 8.375 -10.0625 C 7.957031 -10.425781 7.320312 -10.609375 6.46875 -10.609375 L 3.40625 -10.609375 L 3.40625 -6.328125 Z M 7.296875 -6.03125 L 11.25 0 L 9.53125 0 L 6.09375 -5.234375 Z M 7.296875 -6.03125 "/></g></g></g><g fill="#ffffff" fill-opacity="1"><g transform="translate(90.43895, 16.090737)"><g><path d="M 11.484375 0 L 9.953125 0 L 8.6875 -3.3125 L 3.265625 -3.3125 L 2 0 L 0.46875 0 L 5.125 -11.96875 L 6.84375 -11.96875 Z M 3.78125 -4.671875 L 8.15625 -4.671875 L 5.96875 -10.5625 Z M 3.78125 -4.671875 "/></g></g></g><g fill="#ffffff" fill-opacity="1"><g transform="translate(100.401465, 16.090737)"><g><path d="M 11.34375 -11.96875 L 11.34375 0 L 9.546875 0 L 4.546875 -8.015625 L 3.28125 -10.265625 L 3.265625 -10.265625 L 3.328125 -8.453125 L 3.328125 0 L 1.953125 0 L 1.953125 -11.96875 L 3.75 -11.96875 L 8.734375 -3.984375 L 10.015625 -1.6875 L 10.046875 -1.6875 L 9.96875 -3.515625 L 9.96875 -11.96875 Z M 11.34375 -11.96875 "/></g></g></g><g fill="#ffffff" fill-opacity="1"><g transform="translate(111.704526, 16.090737)"><g><path d="M 5.796875 -12.140625 C 6.847656 -12.140625 7.753906 -11.925781 8.515625 -11.5 C 9.273438 -11.070312 9.910156 -10.441406 10.421875 -9.609375 L 9.203125 -8.65625 C 8.753906 -9.4375 8.25 -9.984375 7.6875 -10.296875 C 7.125 -10.617188 6.445312 -10.78125 5.65625 -10.78125 C 5.007812 -10.78125 4.476562 -10.6875 4.0625 -10.5 C 3.644531 -10.320312 3.335938 -10.085938 3.140625 -9.796875 C 2.953125 -9.503906 2.859375 -9.171875 2.859375 -8.796875 C 2.859375 -8.367188 2.988281 -7.992188 3.25 -7.671875 C 3.519531 -7.359375 4.054688 -7.109375 4.859375 -6.921875 L 7.453125 -6.34375 C 8.597656 -6.09375 9.394531 -5.707031 9.84375 -5.1875 C 10.300781 -4.675781 10.53125 -4.039062 10.53125 -3.28125 C 10.53125 -2.601562 10.335938 -2 9.953125 -1.46875 C 9.578125 -0.945312 9.046875 -0.539062 8.359375 -0.25 C 7.671875 0.0390625 6.859375 0.1875 5.921875 0.1875 C 5.054688 0.1875 4.289062 0.0664062 3.625 -0.171875 C 2.96875 -0.410156 2.40625 -0.726562 1.9375 -1.125 C 1.46875 -1.519531 1.082031 -1.96875 0.78125 -2.46875 L 2.046875 -3.5 C 2.273438 -3.039062 2.570312 -2.632812 2.9375 -2.28125 C 3.300781 -1.9375 3.738281 -1.664062 4.25 -1.46875 C 4.757812 -1.269531 5.347656 -1.171875 6.015625 -1.171875 C 6.628906 -1.171875 7.160156 -1.242188 7.609375 -1.390625 C 8.066406 -1.546875 8.414062 -1.769531 8.65625 -2.0625 C 8.90625 -2.363281 9.03125 -2.726562 9.03125 -3.15625 C 9.03125 -3.539062 8.898438 -3.882812 8.640625 -4.1875 C 8.390625 -4.5 7.914062 -4.734375 7.21875 -4.890625 L 4.40625 -5.53125 C 3.664062 -5.695312 3.066406 -5.925781 2.609375 -6.21875 C 2.160156 -6.519531 1.835938 -6.875 1.640625 -7.28125 C 1.441406 -7.6875 1.34375 -8.125 1.34375 -8.59375 C 1.34375 -9.226562 1.519531 -9.816406 1.875 -10.359375 C 2.226562 -10.898438 2.738281 -11.332031 3.40625 -11.65625 C 4.082031 -11.976562 4.878906 -12.140625 5.796875 -12.140625 Z M 5.796875 -12.140625 "/></g></g></g><g fill="#ffffff" fill-opacity="1"><g transform="translate(121.322852, 16.090737)"><g><path d="M 11.59375 -3.0625 C 11.34375 -2.382812 10.984375 -1.800781 10.515625 -1.3125 C 10.046875 -0.820312 9.492188 -0.445312 8.859375 -0.1875 C 8.222656 0.0625 7.53125 0.1875 6.78125 0.1875 C 5.644531 0.1875 4.660156 -0.0625 3.828125 -0.5625 C 3.003906 -1.070312 2.363281 -1.785156 1.90625 -2.703125 C 1.457031 -3.617188 1.234375 -4.710938 1.234375 -5.984375 C 1.234375 -7.253906 1.457031 -8.347656 1.90625 -9.265625 C 2.363281 -10.179688 3.003906 -10.890625 3.828125 -11.390625 C 4.660156 -11.890625 5.632812 -12.140625 6.75 -12.140625 C 7.519531 -12.140625 8.207031 -12.035156 8.8125 -11.828125 C 9.414062 -11.617188 9.929688 -11.304688 10.359375 -10.890625 C 10.785156 -10.472656 11.125 -9.960938 11.375 -9.359375 L 9.953125 -8.6875 C 9.679688 -9.375 9.296875 -9.894531 8.796875 -10.25 C 8.296875 -10.601562 7.644531 -10.78125 6.84375 -10.78125 C 6.039062 -10.78125 5.328125 -10.585938 4.703125 -10.203125 C 4.085938 -9.828125 3.609375 -9.28125 3.265625 -8.5625 C 2.921875 -7.851562 2.75 -6.992188 2.75 -5.984375 C 2.75 -4.984375 2.910156 -4.117188 3.234375 -3.390625 C 3.566406 -2.671875 4.035156 -2.117188 4.640625 -1.734375 C 5.242188 -1.359375 5.957031 -1.171875 6.78125 -1.171875 C 7.570312 -1.171875 8.265625 -1.375 8.859375 -1.78125 C 9.453125 -2.1875 9.882812 -2.796875 10.15625 -3.609375 Z M 11.59375 -3.0625 "/></g></g></g><g fill="#ffffff" fill-opacity="1"><g transform="translate(131.756372, 16.090737)"><g><path d="M 6.484375 -11.96875 C 7.703125 -11.96875 8.679688 -11.648438 9.421875 -11.015625 C 10.160156 -10.390625 10.53125 -9.539062 10.53125 -8.46875 C 10.53125 -7.382812 10.15625 -6.546875 9.40625 -5.953125 C 8.664062 -5.359375 7.6875 -5.0625 6.46875 -5.0625 L 6.34375 -4.96875 L 3.40625 -4.96875 L 3.40625 0 L 1.953125 0 L 1.953125 -11.96875 Z M 6.46875 -6.328125 C 7.320312 -6.328125 7.957031 -6.503906 8.375 -6.859375 C 8.800781 -7.210938 9.015625 -7.75 9.015625 -8.46875 C 9.015625 -9.175781 8.800781 -9.707031 8.375 -10.0625 C 7.957031 -10.425781 7.320312 -10.609375 6.46875 -10.609375 L 3.40625 -10.609375 L 3.40625 -6.328125 Z M 7.296875 -6.03125 L 11.25 0 L 9.53125 0 L 6.09375 -5.234375 Z M 7.296875 -6.03125 "/></g></g></g><g fill="#ffffff" fill-opacity="1"><g transform="translate(141.809464, 16.090737)"><g><path d="M 3.40625 -11.96875 L 3.40625 0 L 1.953125 0 L 1.953125 -11.96875 Z M 3.40625 -11.96875 "/></g></g></g><g fill="#ffffff" fill-opacity="1"><g transform="translate(145.177932, 16.090737)"><g><path d="M 1.953125 0 L 1.953125 -11.96875 L 6.21875 -11.96875 C 7.632812 -11.96875 8.664062 -11.671875 9.3125 -11.078125 C 9.96875 -10.484375 10.296875 -9.675781 10.296875 -8.65625 C 10.296875 -8.050781 10.117188 -7.503906 9.765625 -7.015625 C 9.421875 -6.535156 8.925781 -6.226562 8.28125 -6.09375 L 8.28125 -6.078125 C 9 -5.941406 9.566406 -5.613281 9.984375 -5.09375 C 10.398438 -4.582031 10.609375 -4.003906 10.609375 -3.359375 C 10.609375 -2.335938 10.222656 -1.519531 9.453125 -0.90625 C 8.691406 -0.300781 7.609375 0 6.203125 0 Z M 3.40625 -1.359375 L 6.546875 -1.359375 C 7.398438 -1.359375 8.035156 -1.53125 8.453125 -1.875 C 8.867188 -2.226562 9.078125 -2.722656 9.078125 -3.359375 C 9.078125 -3.992188 8.867188 -4.484375 8.453125 -4.828125 C 8.035156 -5.171875 7.398438 -5.34375 6.546875 -5.34375 L 3.40625 -5.34375 Z M 3.40625 -6.703125 L 6.234375 -6.703125 C 7.921875 -6.703125 8.765625 -7.351562 8.765625 -8.65625 C 8.765625 -9.957031 7.921875 -10.609375 6.234375 -10.609375 L 3.40625 -10.609375 Z M 3.40625 -6.703125 "/></g></g></g><g fill="#ffffff" fill-opacity="1"><g transform="translate(155.013642, 16.090737)"><g><path d="M 1.953125 0 L 1.953125 -11.96875 L 10.34375 -11.96875 L 10.34375 -10.609375 L 3.40625 -10.609375 L 3.40625 -6.75 L 8.8125 -6.75 L 8.8125 -5.390625 L 3.40625 -5.390625 L 3.40625 -1.359375 L 10.625 -1.359375 L 10.625 0 Z M 1.953125 0 "/></g></g></g><g fill="#ffffff" fill-opacity="1"><g transform="translate(164.582736, 16.090737)"><g/></g></g><g fill="#ffffff" fill-opacity="1"><g transform="translate(168.766409, 16.090737)"><g/></g></g><g fill="#ffffff" fill-opacity="1"><g transform="translate(172.959361, 16.090737)"><g><path d="M 5.796875 -12.140625 C 6.847656 -12.140625 7.753906 -11.925781 8.515625 -11.5 C 9.273438 -11.070312 9.910156 -10.441406 10.421875 -9.609375 L 9.203125 -8.65625 C 8.753906 -9.4375 8.25 -9.984375 7.6875 -10.296875 C 7.125 -10.617188 6.445312 -10.78125 5.65625 -10.78125 C 5.007812 -10.78125 4.476562 -10.6875 4.0625 -10.5 C 3.644531 -10.320312 3.335938 -10.085938 3.140625 -9.796875 C 2.953125 -9.503906 2.859375 -9.171875 2.859375 -8.796875 C 2.859375 -8.367188 2.988281 -7.992188 3.25 -7.671875 C 3.519531 -7.359375 4.054688 -7.109375 4.859375 -6.921875 L 7.453125 -6.34375 C 8.597656 -6.09375 9.394531 -5.707031 9.84375 -5.1875 C 10.300781 -4.675781 10.53125 -4.039062 10.53125 -3.28125 C 10.53125 -2.601562 10.335938 -2 9.953125 -1.46875 C 9.578125 -0.945312 9.046875 -0.539062 8.359375 -0.25 C 7.671875 0.0390625 6.859375 0.1875 5.921875 0.1875 C 5.054688 0.1875 4.289062 0.0664062 3.625 -0.171875 C 2.96875 -0.410156 2.40625 -0.726562 1.9375 -1.125 C 1.46875 -1.519531 1.082031 -1.96875 0.78125 -2.46875 L 2.046875 -3.5 C 2.273438 -3.039062 2.570312 -2.632812 2.9375 -2.28125 C 3.300781 -1.9375 3.738281 -1.664062 4.25 -1.46875 C 4.757812 -1.269531 5.347656 -1.171875 6.015625 -1.171875 C 6.628906 -1.171875 7.160156 -1.242188 7.609375 -1.390625 C 8.066406 -1.546875 8.414062 -1.769531 8.65625 -2.0625 C 8.90625 -2.363281 9.03125 -2.726562 9.03125 -3.15625 C 9.03125 -3.539062 8.898438 -3.882812 8.640625 -4.1875 C 8.390625 -4.5 7.914062 -4.734375 7.21875 -4.890625 L 4.40625 -5.53125 C 3.664062 -5.695312 3.066406 -5.925781 2.609375 -6.21875 C 2.160156 -6.519531 1.835938 -6.875 1.640625 -7.28125 C 1.441406 -7.6875 1.34375 -8.125 1.34375 -8.59375 C 1.34375 -9.226562 1.519531 -9.816406 1.875 -10.359375 C 2.226562 -10.898438 2.738281 -11.332031 3.40625 -11.65625 C 4.082031 -11.976562 4.878906 -12.140625 5.796875 -12.140625 Z M 5.796875 -12.140625 "/></g></g></g><g fill="#ffffff" fill-opacity="1"><g transform="translate(182.577688, 16.090737)"><g><path d="M 6.78125 -12.140625 C 7.914062 -12.140625 8.894531 -11.890625 9.71875 -11.390625 C 10.550781 -10.890625 11.191406 -10.179688 11.640625 -9.265625 C 12.097656 -8.347656 12.328125 -7.253906 12.328125 -5.984375 C 12.328125 -4.710938 12.097656 -3.617188 11.640625 -2.703125 C 11.191406 -1.785156 10.550781 -1.070312 9.71875 -0.5625 C 8.894531 -0.0625 7.914062 0.1875 6.78125 0.1875 C 5.644531 0.1875 4.660156 -0.0625 3.828125 -0.5625 C 3.003906 -1.070312 2.363281 -1.785156 1.90625 -2.703125 C 1.457031 -3.617188 1.234375 -4.710938 1.234375 -5.984375 C 1.234375 -7.253906 1.457031 -8.347656 1.90625 -9.265625 C 2.363281 -10.179688 3.003906 -10.890625 3.828125 -11.390625 C 4.660156 -11.890625 5.644531 -12.140625 6.78125 -12.140625 Z M 6.78125 -10.78125 C 5.957031 -10.78125 5.242188 -10.585938 4.640625 -10.203125 C 4.035156 -9.828125 3.566406 -9.28125 3.234375 -8.5625 C 2.910156 -7.84375 2.75 -6.984375 2.75 -5.984375 C 2.75 -4.984375 2.910156 -4.117188 3.234375 -3.390625 C 3.566406 -2.671875 4.035156 -2.117188 4.640625 -1.734375 C 5.242188 -1.359375 5.957031 -1.171875 6.78125 -1.171875 C 7.613281 -1.171875 8.328125 -1.359375 8.921875 -1.734375 C 9.523438 -2.117188 9.988281 -2.671875 10.3125 -3.390625 C 10.632812 -4.117188 10.796875 -4.984375 10.796875 -5.984375 C 10.796875 -6.984375 10.632812 -7.84375 10.3125 -8.5625 C 9.988281 -9.28125 9.523438 -9.828125 8.921875 -10.203125 C 8.328125 -10.585938 7.613281 -10.78125 6.78125 -10.78125 Z M 6.78125 -10.78125 "/></g></g></g><g fill="#ffffff" fill-opacity="1"><g transform="translate(194.134371, 16.090737)"><g><path d="M 6.484375 -11.96875 C 7.703125 -11.96875 8.679688 -11.648438 9.421875 -11.015625 C 10.160156 -10.390625 10.53125 -9.539062 10.53125 -8.46875 C 10.53125 -7.382812 10.15625 -6.546875 9.40625 -5.953125 C 8.664062 -5.359375 7.6875 -5.0625 6.46875 -5.0625 L 6.34375 -4.96875 L 3.40625 -4.96875 L 3.40625 0 L 1.953125 0 L 1.953125 -11.96875 Z M 6.46875 -6.328125 C 7.320312 -6.328125 7.957031 -6.503906 8.375 -6.859375 C 8.800781 -7.210938 9.015625 -7.75 9.015625 -8.46875 C 9.015625 -9.175781 8.800781 -9.707031 8.375 -10.0625 C 7.957031 -10.425781 7.320312 -10.609375 6.46875 -10.609375 L 3.40625 -10.609375 L 3.40625 -6.328125 Z M 7.296875 -6.03125 L 11.25 0 L 9.53125 0 L 6.09375 -5.234375 Z M 7.296875 -6.03125 "/></g></g></g><g fill="#ffffff" fill-opacity="1"><g transform="translate(204.187463, 16.090737)"><g><path d="M 10.375 -11.96875 L 10.375 -10.609375 L 6.203125 -10.609375 L 6.203125 0 L 4.75 0 L 4.75 -10.609375 L 0.578125 -10.609375 L 0.578125 -11.96875 Z M 10.375 -11.96875 "/></g></g></g><g fill="#ffffff" fill-opacity="1"><g transform="translate(213.14239, 16.090737)"><g/></g></g><g fill="#ffffff" fill-opacity="1"><g transform="translate(217.326063, 16.090737)"><g/></g></g><g fill="#ffffff" fill-opacity="1"><g transform="translate(221.519016, 16.090737)"><g><path d="M 11.59375 -3.0625 C 11.34375 -2.382812 10.984375 -1.800781 10.515625 -1.3125 C 10.046875 -0.820312 9.492188 -0.445312 8.859375 -0.1875 C 8.222656 0.0625 7.53125 0.1875 6.78125 0.1875 C 5.644531 0.1875 4.660156 -0.0625 3.828125 -0.5625 C 3.003906 -1.070312 2.363281 -1.785156 1.90625 -2.703125 C 1.457031 -3.617188 1.234375 -4.710938 1.234375 -5.984375 C 1.234375 -7.253906 1.457031 -8.347656 1.90625 -9.265625 C 2.363281 -10.179688 3.003906 -10.890625 3.828125 -11.390625 C 4.660156 -11.890625 5.632812 -12.140625 6.75 -12.140625 C 7.519531 -12.140625 8.207031 -12.035156 8.8125 -11.828125 C 9.414062 -11.617188 9.929688 -11.304688 10.359375 -10.890625 C 10.785156 -10.472656 11.125 -9.960938 11.375 -9.359375 L 9.953125 -8.6875 C 9.679688 -9.375 9.296875 -9.894531 8.796875 -10.25 C 8.296875 -10.601562 7.644531 -10.78125 6.84375 -10.78125 C 6.039062 -10.78125 5.328125 -10.585938 4.703125 -10.203125 C 4.085938 -9.828125 3.609375 -9.28125 3.265625 -8.5625 C 2.921875 -7.851562 2.75 -6.992188 2.75 -5.984375 C 2.75 -4.984375 2.910156 -4.117188 3.234375 -3.390625 C 3.566406 -2.671875 4.035156 -2.117188 4.640625 -1.734375 C 5.242188 -1.359375 5.957031 -1.171875 6.78125 -1.171875 C 7.570312 -1.171875 8.265625 -1.375 8.859375 -1.78125 C 9.453125 -2.1875 9.882812 -2.796875 10.15625 -3.609375 Z M 11.59375 -3.0625 "/></g></g></g><g fill="#ffffff" fill-opacity="1"><g transform="translate(231.952535, 16.090737)"><g><path d="M 6.78125 -12.140625 C 7.914062 -12.140625 8.894531 -11.890625 9.71875 -11.390625 C 10.550781 -10.890625 11.191406 -10.179688 11.640625 -9.265625 C 12.097656 -8.347656 12.328125 -7.253906 12.328125 -5.984375 C 12.328125 -4.710938 12.097656 -3.617188 11.640625 -2.703125 C 11.191406 -1.785156 10.550781 -1.070312 9.71875 -0.5625 C 8.894531 -0.0625 7.914062 0.1875 6.78125 0.1875 C 5.644531 0.1875 4.660156 -0.0625 3.828125 -0.5625 C 3.003906 -1.070312 2.363281 -1.785156 1.90625 -2.703125 C 1.457031 -3.617188 1.234375 -4.710938 1.234375 -5.984375 C 1.234375 -7.253906 1.457031 -8.347656 1.90625 -9.265625 C 2.363281 -10.179688 3.003906 -10.890625 3.828125 -11.390625 C 4.660156 -11.890625 5.644531 -12.140625 6.78125 -12.140625 Z M 6.78125 -10.78125 C 5.957031 -10.78125 5.242188 -10.585938 4.640625 -10.203125 C 4.035156 -9.828125 3.566406 -9.28125 3.234375 -8.5625 C 2.910156 -7.84375 2.75 -6.984375 2.75 -5.984375 C 2.75 -4.984375 2.910156 -4.117188 3.234375 -3.390625 C 3.566406 -2.671875 4.035156 -2.117188 4.640625 -1.734375 C 5.242188 -1.359375 5.957031 -1.171875 6.78125 -1.171875 C 7.613281 -1.171875 8.328125 -1.359375 8.921875 -1.734375 C 9.523438 -2.117188 9.988281 -2.671875 10.3125 -3.390625 C 10.632812 -4.117188 10.796875 -4.984375 10.796875 -5.984375 C 10.796875 -6.984375 10.632812 -7.84375 10.3125 -8.5625 C 9.988281 -9.28125 9.523438 -9.828125 8.921875 -10.203125 C 8.328125 -10.585938 7.613281 -10.78125 6.78125 -10.78125 Z M 6.78125 -10.78125 "/></g></g></g><g fill="#ffffff" fill-opacity="1"><g transform="translate(243.509219, 16.090737)"><g><path d="M 3.40625 -1.359375 L 10.265625 -1.359375 L 10.265625 0 L 1.953125 0 L 1.953125 -11.96875 L 3.40625 -11.96875 Z M 3.40625 -1.359375 "/></g></g></g><g fill="#ffffff" fill-opacity="1"><g transform="translate(252.34857, 16.090737)"><g><path d="M 3.40625 -1.359375 L 10.265625 -1.359375 L 10.265625 0 L 1.953125 0 L 1.953125 -11.96875 L 3.40625 -11.96875 Z M 3.40625 -1.359375 "/></g></g></g><g fill="#ffffff" fill-opacity="1"><g transform="translate(261.187921, 16.090737)"><g><path d="M 11.484375 0 L 9.953125 0 L 8.6875 -3.3125 L 3.265625 -3.3125 L 2 0 L 0.46875 0 L 5.125 -11.96875 L 6.84375 -11.96875 Z M 3.78125 -4.671875 L 8.15625 -4.671875 L 5.96875 -10.5625 Z M 3.78125 -4.671875 "/></g></g></g><g fill="#ffffff" fill-opacity="1"><g transform="translate(271.150436, 16.090737)"><g><path d="M 1.953125 0 L 1.953125 -11.96875 L 6.21875 -11.96875 C 7.632812 -11.96875 8.664062 -11.671875 9.3125 -11.078125 C 9.96875 -10.484375 10.296875 -9.675781 10.296875 -8.65625 C 10.296875 -8.050781 10.117188 -7.503906 9.765625 -7.015625 C 9.421875 -6.535156 8.925781 -6.226562 8.28125 -6.09375 L 8.28125 -6.078125 C 9 -5.941406 9.566406 -5.613281 9.984375 -5.09375 C 10.398438 -4.582031 10.609375 -4.003906 10.609375 -3.359375 C 10.609375 -2.335938 10.222656 -1.519531 9.453125 -0.90625 C 8.691406 -0.300781 7.609375 0 6.203125 0 Z M 3.40625 -1.359375 L 6.546875 -1.359375 C 7.398438 -1.359375 8.035156 -1.53125 8.453125 -1.875 C 8.867188 -2.226562 9.078125 -2.722656 9.078125 -3.359375 C 9.078125 -3.992188 8.867188 -4.484375 8.453125 -4.828125 C 8.035156 -5.171875 7.398438 -5.34375 6.546875 -5.34375 L 3.40625 -5.34375 Z M 3.40625 -6.703125 L 6.234375 -6.703125 C 7.921875 -6.703125 8.765625 -7.351562 8.765625 -8.65625 C 8.765625 -9.957031 7.921875 -10.609375 6.234375 -10.609375 L 3.40625 -10.609375 Z M 3.40625 -6.703125 "/></g></g></g><g fill="#ffffff" fill-opacity="1"><g transform="translate(280.986145, 16.090737)"><g><path d="M 6.78125 -12.140625 C 7.914062 -12.140625 8.894531 -11.890625 9.71875 -11.390625 C 10.550781 -10.890625 11.191406 -10.179688 11.640625 -9.265625 C 12.097656 -8.347656 12.328125 -7.253906 12.328125 -5.984375 C 12.328125 -4.710938 12.097656 -3.617188 11.640625 -2.703125 C 11.191406 -1.785156 10.550781 -1.070312 9.71875 -0.5625 C 8.894531 -0.0625 7.914062 0.1875 6.78125 0.1875 C 5.644531 0.1875 4.660156 -0.0625 3.828125 -0.5625 C 3.003906 -1.070312 2.363281 -1.785156 1.90625 -2.703125 C 1.457031 -3.617188 1.234375 -4.710938 1.234375 -5.984375 C 1.234375 -7.253906 1.457031 -8.347656 1.90625 -9.265625 C 2.363281 -10.179688 3.003906 -10.890625 3.828125 -11.390625 C 4.660156 -11.890625 5.644531 -12.140625 6.78125 -12.140625 Z M 6.78125 -10.78125 C 5.957031 -10.78125 5.242188 -10.585938 4.640625 -10.203125 C 4.035156 -9.828125 3.566406 -9.28125 3.234375 -8.5625 C 2.910156 -7.84375 2.75 -6.984375 2.75 -5.984375 C 2.75 -4.984375 2.910156 -4.117188 3.234375 -3.390625 C 3.566406 -2.671875 4.035156 -2.117188 4.640625 -1.734375 C 5.242188 -1.359375 5.957031 -1.171875 6.78125 -1.171875 C 7.613281 -1.171875 8.328125 -1.359375 8.921875 -1.734375 C 9.523438 -2.117188 9.988281 -2.671875 10.3125 -3.390625 C 10.632812 -4.117188 10.796875 -4.984375 10.796875 -5.984375 C 10.796875 -6.984375 10.632812 -7.84375 10.3125 -8.5625 C 9.988281 -9.28125 9.523438 -9.828125 8.921875 -10.203125 C 8.328125 -10.585938 7.613281 -10.78125 6.78125 -10.78125 Z M 6.78125 -10.78125 "/></g></g></g><g fill="#ffffff" fill-opacity="1"><g transform="translate(292.542828, 16.090737)"><g><path d="M 6.484375 -11.96875 C 7.703125 -11.96875 8.679688 -11.648438 9.421875 -11.015625 C 10.160156 -10.390625 10.53125 -9.539062 10.53125 -8.46875 C 10.53125 -7.382812 10.15625 -6.546875 9.40625 -5.953125 C 8.664062 -5.359375 7.6875 -5.0625 6.46875 -5.0625 L 6.34375 -4.96875 L 3.40625 -4.96875 L 3.40625 0 L 1.953125 0 L 1.953125 -11.96875 Z M 6.46875 -6.328125 C 7.320312 -6.328125 7.957031 -6.503906 8.375 -6.859375 C 8.800781 -7.210938 9.015625 -7.75 9.015625 -8.46875 C 9.015625 -9.175781 8.800781 -9.707031 8.375 -10.0625 C 7.957031 -10.425781 7.320312 -10.609375 6.46875 -10.609375 L 3.40625 -10.609375 L 3.40625 -6.328125 Z M 7.296875 -6.03125 L 11.25 0 L 9.53125 0 L 6.09375 -5.234375 Z M 7.296875 -6.03125 "/></g></g></g><g fill="#ffffff" fill-opacity="1"><g transform="translate(302.59592, 16.090737)"><g><path d="M 11.484375 0 L 9.953125 0 L 8.6875 -3.3125 L 3.265625 -3.3125 L 2 0 L 0.46875 0 L 5.125 -11.96875 L 6.84375 -11.96875 Z M 3.78125 -4.671875 L 8.15625 -4.671875 L 5.96875 -10.5625 Z M 3.78125 -4.671875 "/></g></g></g><g fill="#ffffff" fill-opacity="1"><g transform="translate(312.558435, 16.090737)"><g><path d="M 10.375 -11.96875 L 10.375 -10.609375 L 6.203125 -10.609375 L 6.203125 0 L 4.75 0 L 4.75 -10.609375 L 0.578125 -10.609375 L 0.578125 -11.96875 Z M 10.375 -11.96875 "/></g></g></g><g clip-path="url(#73e4feb15d)"><g fill="#ffffff" fill-opacity="1"><g transform="translate(321.506482, 16.090737)"><g><path d="M 1.953125 0 L 1.953125 -11.96875 L 10.34375 -11.96875 L 10.34375 -10.609375 L 3.40625 -10.609375 L 3.40625 -6.75 L 8.8125 -6.75 L 8.8125 -5.390625 L 3.40625 -5.390625 L 3.40625 -1.359375 L 10.625 -1.359375 L 10.625 0 Z M 1.953125 0 "/></g></g></g></g></g></g><g transform="matrix(1, 0, 0, 1, 183, 270)"><g clip-path="url(#488e067291)"><g clip-path="url(#b538394302)"><g fill="#ff3939" fill-opacity="1"><g transform="translate(2.234704, 0.93467)"><g><path d="M 0 -0.234375 L 6.21875 3.4375 L 0 7.109375 Z M 0 -0.234375 "/></g></g></g><g fill="#ffffff" fill-opacity="1"><g transform="translate(2.442009, 0.93467)"><g><path d="M 0 -0.234375 L 6.21875 3.4375 L 0 7.109375 Z M 0 -0.234375 "/></g></g></g></g></g></g><g transform="matrix(1, 0, 0, 1, 38, 270)"><g clip-path="url(#3ca0861ddb)"><g clip-path="url(#11160620a4)"><g fill="#ff3939" fill-opacity="1"><g transform="translate(2.209074, 0.93467)"><g><path d="M 0 -0.234375 L 6.21875 3.4375 L 0 7.109375 Z M 0 -0.234375 "/></g></g></g><g fill="#ffffff" fill-opacity="1"><g transform="translate(2.416386, 0.93467)"><g><path d="M 0 -0.234375 L 6.21875 3.4375 L 0 7.109375 Z M 0 -0.234375 "/></g></g></g></g></g></g><g transform="matrix(1, 0, 0, 1, 348, 270)"><g clip-path="url(#b0edb53c62)"><g clip-path="url(#1c9db9782c)"><g fill="#ff3939" fill-opacity="1"><g transform="translate(2.621485, 0.93467)"><g><path d="M 0 -0.234375 L 6.21875 3.4375 L 0 7.109375 Z M 0 -0.234375 "/></g></g></g></g><g clip-path="url(#9a2d1ad2c3)"><g fill="#ffffff" fill-opacity="1"><g transform="translate(2.82879, 0.93467)"><g><path d="M 0 -0.234375 L 6.21875 3.4375 L 0 7.109375 Z M 0 -0.234375 "/></g></g></g></g></g></g><g transform="matrix(1, 0, 0, 1, 289, 272)"><g clip-path="url(#48aef088b5)"><g clip-path="url(#df7d95b099)"><g fill="#ff3939" fill-opacity="1"><g transform="translate(0.828403, 4.86809)"><g><path d="M -0.15625 0 L 2.328125 -4.21875 L 4.8125 0 Z M -0.15625 0 "/></g></g></g><g fill="#ffffff" fill-opacity="1"><g transform="translate(0.828403, 4.727407)"><g><path d="M -0.15625 0 L 2.328125 -4.21875 L 4.8125 0 Z M -0.15625 0 "/></g></g></g></g></g></g><g transform="matrix(1, 0, 0, 1, 330, 272)"><g clip-path="url(#3135f20e51)"><g clip-path="url(#fc5d60b9ab)"><g fill="#ff3939" fill-opacity="1"><g transform="translate(1.302434, 4.86809)"><g><path d="M -0.15625 0 L 2.328125 -4.21875 L 4.8125 0 Z M -0.15625 0 "/></g></g></g><g fill="#ffffff" fill-opacity="1"><g transform="translate(1.302434, 4.727407)"><g><path d="M -0.15625 0 L 2.328125 -4.21875 L 4.8125 0 Z M -0.15625 0 "/></g></g></g></g></g></g><g transform="matrix(1, 0, 0, 1, 118, 272)"><g clip-path="url(#940e121b78)"><g clip-path="url(#082316e8d0)"><g fill="#ff3939" fill-opacity="1"><g transform="translate(1.131711, 4.86809)"><g><path d="M -0.15625 0 L 2.328125 -4.21875 L 4.8125 0 Z M -0.15625 0 "/></g></g></g><g fill="#ffffff" fill-opacity="1"><g transform="translate(1.131711, 4.727407)"><g><path d="M -0.15625 0 L 2.328125 -4.21875 L 4.8125 0 Z M -0.15625 0 "/></g></g></g></g></g></g></svg>